<mxfile host="app.diagrams.net" agent="Mozilla/5.0 (Windows NT 10.0; Win64; x64) AppleWebKit/537.36 (KHTML, like Gecko) Chrome/129.0.0.0 Safari/537.36 Edg/129.0.0.0" version="24.7.16">
  <diagram name="Page-1" id="ErtS2UddehTpOI3MTQVF">
    <mxGraphModel dx="764" dy="2899" grid="1" gridSize="10" guides="1" tooltips="1" connect="0" arrows="1" fold="1" page="1" pageScale="1" pageWidth="850" pageHeight="1100" math="0" shadow="0">
      <root>
        <mxCell id="0" />
        <mxCell id="1" parent="0" />
        <mxCell id="xhsn_PsGptboTVmKEA8n-3" style="edgeStyle=orthogonalEdgeStyle;rounded=0;orthogonalLoop=1;jettySize=auto;html=1;exitX=0.5;exitY=1;exitDx=0;exitDy=0;" parent="1" source="xhsn_PsGptboTVmKEA8n-1" target="xhsn_PsGptboTVmKEA8n-2" edge="1">
          <mxGeometry relative="1" as="geometry" />
        </mxCell>
        <mxCell id="xhsn_PsGptboTVmKEA8n-1" value="Start" style="ellipse;whiteSpace=wrap;html=1;" parent="1" vertex="1">
          <mxGeometry x="180" y="-2180" width="120" height="80" as="geometry" />
        </mxCell>
        <mxCell id="xhsn_PsGptboTVmKEA8n-196" style="edgeStyle=orthogonalEdgeStyle;rounded=0;orthogonalLoop=1;jettySize=auto;html=1;exitX=0.5;exitY=1;exitDx=0;exitDy=0;entryX=0.5;entryY=0;entryDx=0;entryDy=0;" parent="1" source="xhsn_PsGptboTVmKEA8n-2" target="xhsn_PsGptboTVmKEA8n-35" edge="1">
          <mxGeometry relative="1" as="geometry" />
        </mxCell>
        <mxCell id="xhsn_PsGptboTVmKEA8n-2" value="Declarations&lt;div&gt;string contestantName&lt;/div&gt;&lt;div&gt;&lt;div&gt;string category&lt;/div&gt;&lt;/div&gt;&lt;div&gt;num bet&lt;/div&gt;&lt;div&gt;string winningPlayer&lt;/div&gt;&lt;div&gt;string answer&lt;/div&gt;&lt;div&gt;num gameWinnings&lt;/div&gt;&lt;div&gt;num afterFinalJeopardy&lt;/div&gt;&lt;div&gt;string otherContestants&lt;/div&gt;" style="whiteSpace=wrap;html=1;aspect=fixed;" parent="1" vertex="1">
          <mxGeometry x="170" y="-2055" width="140" height="140" as="geometry" />
        </mxCell>
        <mxCell id="xhsn_PsGptboTVmKEA8n-198" style="edgeStyle=orthogonalEdgeStyle;rounded=0;orthogonalLoop=1;jettySize=auto;html=1;exitX=0.5;exitY=1;exitDx=0;exitDy=0;entryX=0.5;entryY=0;entryDx=0;entryDy=0;" parent="1" source="xhsn_PsGptboTVmKEA8n-4" target="xhsn_PsGptboTVmKEA8n-7" edge="1">
          <mxGeometry relative="1" as="geometry" />
        </mxCell>
        <mxCell id="xhsn_PsGptboTVmKEA8n-4" value="Output &quot;Please select between the categories of Music, Science, or World History.&quot;" style="shape=parallelogram;perimeter=parallelogramPerimeter;whiteSpace=wrap;html=1;fixedSize=1;" parent="1" vertex="1">
          <mxGeometry x="160" y="-1790" width="160" height="60" as="geometry" />
        </mxCell>
        <mxCell id="xhsn_PsGptboTVmKEA8n-17" style="edgeStyle=orthogonalEdgeStyle;rounded=0;orthogonalLoop=1;jettySize=auto;html=1;exitX=0.5;exitY=1;exitDx=0;exitDy=0;entryX=0.5;entryY=0;entryDx=0;entryDy=0;" parent="1" target="xhsn_PsGptboTVmKEA8n-16" edge="1">
          <mxGeometry relative="1" as="geometry">
            <mxPoint x="240" y="-1640" as="sourcePoint" />
          </mxGeometry>
        </mxCell>
        <mxCell id="xhsn_PsGptboTVmKEA8n-7" value="Input category" style="shape=parallelogram;perimeter=parallelogramPerimeter;whiteSpace=wrap;html=1;fixedSize=1;" parent="1" vertex="1">
          <mxGeometry x="180" y="-1700" width="120" height="60" as="geometry" />
        </mxCell>
        <mxCell id="xhsn_PsGptboTVmKEA8n-20" style="edgeStyle=orthogonalEdgeStyle;rounded=0;orthogonalLoop=1;jettySize=auto;html=1;exitX=0.5;exitY=1;exitDx=0;exitDy=0;entryX=0.5;entryY=0;entryDx=0;entryDy=0;" parent="1" source="xhsn_PsGptboTVmKEA8n-16" target="xhsn_PsGptboTVmKEA8n-19" edge="1">
          <mxGeometry relative="1" as="geometry" />
        </mxCell>
        <mxCell id="xhsn_PsGptboTVmKEA8n-16" value="&#xa;&#xa;&#xa;Music ()" style="swimlane;fontStyle=0;childLayout=stackLayout;horizontal=1;startSize=10;fillColor=#ffffff;horizontalStack=0;resizeParent=1;resizeParentMax=0;resizeLast=0;collapsible=0;marginBottom=0;swimlaneFillColor=#ffffff;" parent="1" vertex="1">
          <mxGeometry x="190" y="-1600" width="100" height="40" as="geometry" />
        </mxCell>
        <mxCell id="xhsn_PsGptboTVmKEA8n-22" style="edgeStyle=orthogonalEdgeStyle;rounded=0;orthogonalLoop=1;jettySize=auto;html=1;exitX=0.5;exitY=1;exitDx=0;exitDy=0;entryX=0.5;entryY=0;entryDx=0;entryDy=0;" parent="1" source="xhsn_PsGptboTVmKEA8n-19" target="xhsn_PsGptboTVmKEA8n-21" edge="1">
          <mxGeometry relative="1" as="geometry" />
        </mxCell>
        <mxCell id="xhsn_PsGptboTVmKEA8n-19" value="&#xa;&#xa;&#xa;Science ()" style="swimlane;fontStyle=0;childLayout=stackLayout;horizontal=1;startSize=10;fillColor=#ffffff;horizontalStack=0;resizeParent=1;resizeParentMax=0;resizeLast=0;collapsible=0;marginBottom=0;swimlaneFillColor=#ffffff;" parent="1" vertex="1">
          <mxGeometry x="190" y="-1530" width="100" height="40" as="geometry" />
        </mxCell>
        <mxCell id="xhsn_PsGptboTVmKEA8n-43" style="edgeStyle=orthogonalEdgeStyle;rounded=0;orthogonalLoop=1;jettySize=auto;html=1;exitX=0.5;exitY=1;exitDx=0;exitDy=0;entryX=0.5;entryY=0;entryDx=0;entryDy=0;" parent="1" source="xhsn_PsGptboTVmKEA8n-21" target="xhsn_PsGptboTVmKEA8n-42" edge="1">
          <mxGeometry relative="1" as="geometry" />
        </mxCell>
        <mxCell id="xhsn_PsGptboTVmKEA8n-21" value="&#xa;&#xa;&#xa;worldHistory ()" style="swimlane;fontStyle=0;childLayout=stackLayout;horizontal=1;startSize=10;fillColor=#ffffff;horizontalStack=0;resizeParent=1;resizeParentMax=0;resizeLast=0;collapsible=0;marginBottom=0;swimlaneFillColor=#ffffff;" parent="1" vertex="1">
          <mxGeometry x="190" y="-1470" width="100" height="50" as="geometry" />
        </mxCell>
        <mxCell id="xhsn_PsGptboTVmKEA8n-277" style="edgeStyle=orthogonalEdgeStyle;rounded=0;orthogonalLoop=1;jettySize=auto;html=1;exitX=0.5;exitY=1;exitDx=0;exitDy=0;" parent="1" source="xhsn_PsGptboTVmKEA8n-25" target="xhsn_PsGptboTVmKEA8n-276" edge="1">
          <mxGeometry relative="1" as="geometry" />
        </mxCell>
        <mxCell id="xhsn_PsGptboTVmKEA8n-25" value="Output &quot;Contestants may place their bets for Final Jeopardy now.&quot;" style="shape=parallelogram;perimeter=parallelogramPerimeter;whiteSpace=wrap;html=1;fixedSize=1;" parent="1" vertex="1">
          <mxGeometry x="100" y="-650" width="190" height="70" as="geometry" />
        </mxCell>
        <mxCell id="xhsn_PsGptboTVmKEA8n-274" style="edgeStyle=orthogonalEdgeStyle;rounded=0;orthogonalLoop=1;jettySize=auto;html=1;exitX=0.5;exitY=1;exitDx=0;exitDy=0;entryX=0.5;entryY=0;entryDx=0;entryDy=0;" parent="1" source="xhsn_PsGptboTVmKEA8n-29" target="xhsn_PsGptboTVmKEA8n-31" edge="1">
          <mxGeometry relative="1" as="geometry" />
        </mxCell>
        <mxCell id="xhsn_PsGptboTVmKEA8n-29" value="&#xa;&#xa;&#xa;finalJeopardy ()" style="swimlane;fontStyle=0;childLayout=stackLayout;horizontal=1;startSize=10;fillColor=#ffffff;horizontalStack=0;resizeParent=1;resizeParentMax=0;resizeLast=0;collapsible=0;marginBottom=0;swimlaneFillColor=#ffffff;" parent="1" vertex="1">
          <mxGeometry x="190" y="-1260" width="100" height="50" as="geometry" />
        </mxCell>
        <mxCell id="xhsn_PsGptboTVmKEA8n-34" style="edgeStyle=orthogonalEdgeStyle;rounded=0;orthogonalLoop=1;jettySize=auto;html=1;exitX=0.5;exitY=1;exitDx=0;exitDy=0;entryX=0.5;entryY=0;entryDx=0;entryDy=0;" parent="1" target="xhsn_PsGptboTVmKEA8n-33" edge="1">
          <mxGeometry relative="1" as="geometry">
            <mxPoint x="240" y="-1130" as="sourcePoint" />
          </mxGeometry>
        </mxCell>
        <mxCell id="xhsn_PsGptboTVmKEA8n-31" value="Output &quot;Congratulations &quot;, winningPlayer &quot;you have won!&quot;" style="shape=parallelogram;perimeter=parallelogramPerimeter;whiteSpace=wrap;html=1;dashed=0;" parent="1" vertex="1">
          <mxGeometry x="135" y="-1180" width="210" height="50" as="geometry" />
        </mxCell>
        <mxCell id="xhsn_PsGptboTVmKEA8n-33" value="Stop" style="ellipse;whiteSpace=wrap;html=1;" parent="1" vertex="1">
          <mxGeometry x="180" y="-1110" width="120" height="80" as="geometry" />
        </mxCell>
        <mxCell id="xhsn_PsGptboTVmKEA8n-197" style="edgeStyle=orthogonalEdgeStyle;rounded=0;orthogonalLoop=1;jettySize=auto;html=1;exitX=0.5;exitY=1;exitDx=0;exitDy=0;entryX=0.5;entryY=0;entryDx=0;entryDy=0;" parent="1" source="xhsn_PsGptboTVmKEA8n-35" target="xhsn_PsGptboTVmKEA8n-4" edge="1">
          <mxGeometry relative="1" as="geometry" />
        </mxCell>
        <mxCell id="xhsn_PsGptboTVmKEA8n-35" value="Input contestantName" style="shape=parallelogram;perimeter=parallelogramPerimeter;whiteSpace=wrap;html=1;fixedSize=1;" parent="1" vertex="1">
          <mxGeometry x="165" y="-1880" width="150" height="60" as="geometry" />
        </mxCell>
        <mxCell id="xhsn_PsGptboTVmKEA8n-48" style="edgeStyle=orthogonalEdgeStyle;rounded=0;orthogonalLoop=1;jettySize=auto;html=1;exitX=0.5;exitY=1;exitDx=0;exitDy=0;entryX=0.5;entryY=0;entryDx=0;entryDy=0;" parent="1" target="xhsn_PsGptboTVmKEA8n-40" edge="1">
          <mxGeometry relative="1" as="geometry">
            <mxPoint x="510" y="-2090" as="sourcePoint" />
          </mxGeometry>
        </mxCell>
        <mxCell id="xhsn_PsGptboTVmKEA8n-50" style="edgeStyle=orthogonalEdgeStyle;rounded=0;orthogonalLoop=1;jettySize=auto;html=1;exitX=0.5;exitY=1;exitDx=0;exitDy=0;entryX=0.302;entryY=-0.017;entryDx=0;entryDy=0;entryPerimeter=0;" parent="1" source="xhsn_PsGptboTVmKEA8n-40" target="xhsn_PsGptboTVmKEA8n-195" edge="1">
          <mxGeometry relative="1" as="geometry">
            <mxPoint x="510" y="-1400.0000000000002" as="targetPoint" />
          </mxGeometry>
        </mxCell>
        <mxCell id="xhsn_PsGptboTVmKEA8n-52" value="No" style="edgeLabel;html=1;align=center;verticalAlign=middle;resizable=0;points=[];" parent="xhsn_PsGptboTVmKEA8n-50" vertex="1" connectable="0">
          <mxGeometry x="-0.0958" y="-1" relative="1" as="geometry">
            <mxPoint as="offset" />
          </mxGeometry>
        </mxCell>
        <mxCell id="xhsn_PsGptboTVmKEA8n-62" style="edgeStyle=orthogonalEdgeStyle;rounded=0;orthogonalLoop=1;jettySize=auto;html=1;exitX=1;exitY=0.5;exitDx=0;exitDy=0;entryX=0;entryY=0.5;entryDx=0;entryDy=0;" parent="1" source="xhsn_PsGptboTVmKEA8n-40" target="xhsn_PsGptboTVmKEA8n-60" edge="1">
          <mxGeometry relative="1" as="geometry" />
        </mxCell>
        <mxCell id="xhsn_PsGptboTVmKEA8n-63" value="Yes" style="edgeLabel;html=1;align=center;verticalAlign=middle;resizable=0;points=[];" parent="xhsn_PsGptboTVmKEA8n-62" vertex="1" connectable="0">
          <mxGeometry x="-0.1879" y="1" relative="1" as="geometry">
            <mxPoint as="offset" />
          </mxGeometry>
        </mxCell>
        <mxCell id="xhsn_PsGptboTVmKEA8n-40" value="Did contestantName&amp;nbsp;choose music category?" style="rhombus;whiteSpace=wrap;html=1;" parent="1" vertex="1">
          <mxGeometry x="435" y="-2070" width="150" height="110" as="geometry" />
        </mxCell>
        <mxCell id="xhsn_PsGptboTVmKEA8n-44" style="edgeStyle=orthogonalEdgeStyle;rounded=0;orthogonalLoop=1;jettySize=auto;html=1;exitX=0.5;exitY=1;exitDx=0;exitDy=0;entryX=0.5;entryY=0;entryDx=0;entryDy=0;" parent="1" source="xhsn_PsGptboTVmKEA8n-42" edge="1">
          <mxGeometry relative="1" as="geometry">
            <mxPoint x="240" y="-1260" as="targetPoint" />
          </mxGeometry>
        </mxCell>
        <mxCell id="xhsn_PsGptboTVmKEA8n-45" value="No" style="edgeLabel;html=1;align=center;verticalAlign=middle;resizable=0;points=[];" parent="xhsn_PsGptboTVmKEA8n-44" vertex="1" connectable="0">
          <mxGeometry x="-0.2444" y="-1" relative="1" as="geometry">
            <mxPoint as="offset" />
          </mxGeometry>
        </mxCell>
        <mxCell id="xhsn_PsGptboTVmKEA8n-199" style="edgeStyle=orthogonalEdgeStyle;rounded=0;orthogonalLoop=1;jettySize=auto;html=1;exitX=1;exitY=0.5;exitDx=0;exitDy=0;entryX=0.5;entryY=0;entryDx=0;entryDy=0;" parent="1" source="xhsn_PsGptboTVmKEA8n-42" target="xhsn_PsGptboTVmKEA8n-35" edge="1">
          <mxGeometry relative="1" as="geometry" />
        </mxCell>
        <mxCell id="xhsn_PsGptboTVmKEA8n-200" value="Yes" style="edgeLabel;html=1;align=center;verticalAlign=middle;resizable=0;points=[];" parent="xhsn_PsGptboTVmKEA8n-199" vertex="1" connectable="0">
          <mxGeometry x="-0.2849" y="-7" relative="1" as="geometry">
            <mxPoint as="offset" />
          </mxGeometry>
        </mxCell>
        <mxCell id="xhsn_PsGptboTVmKEA8n-42" value="Are there any categories remaining?" style="rhombus;whiteSpace=wrap;html=1;" parent="1" vertex="1">
          <mxGeometry x="180" y="-1390" width="120" height="100" as="geometry" />
        </mxCell>
        <mxCell id="xhsn_PsGptboTVmKEA8n-59" style="edgeStyle=orthogonalEdgeStyle;rounded=0;orthogonalLoop=1;jettySize=auto;html=1;exitX=0.5;exitY=1;exitDx=0;exitDy=0;entryX=0.5;entryY=0;entryDx=0;entryDy=0;" parent="1" source="xhsn_PsGptboTVmKEA8n-53" target="xhsn_PsGptboTVmKEA8n-55" edge="1">
          <mxGeometry relative="1" as="geometry" />
        </mxCell>
        <mxCell id="xhsn_PsGptboTVmKEA8n-53" value="Output &quot;The first video played on MTV in 1981&quot;" style="shape=parallelogram;perimeter=parallelogramPerimeter;whiteSpace=wrap;html=1;fixedSize=1;" parent="1" vertex="1">
          <mxGeometry x="620" y="-1940" width="200" height="60" as="geometry" />
        </mxCell>
        <mxCell id="xhsn_PsGptboTVmKEA8n-58" style="edgeStyle=orthogonalEdgeStyle;rounded=0;orthogonalLoop=1;jettySize=auto;html=1;exitX=0.5;exitY=1;exitDx=0;exitDy=0;entryX=0.5;entryY=0;entryDx=0;entryDy=0;" parent="1" source="xhsn_PsGptboTVmKEA8n-55" target="xhsn_PsGptboTVmKEA8n-57" edge="1">
          <mxGeometry relative="1" as="geometry" />
        </mxCell>
        <mxCell id="xhsn_PsGptboTVmKEA8n-55" value="Begin 5 second timer" style="rounded=0;whiteSpace=wrap;html=1;" parent="1" vertex="1">
          <mxGeometry x="660" y="-1840" width="120" height="60" as="geometry" />
        </mxCell>
        <mxCell id="xhsn_PsGptboTVmKEA8n-66" style="edgeStyle=orthogonalEdgeStyle;rounded=0;orthogonalLoop=1;jettySize=auto;html=1;exitX=0.5;exitY=1;exitDx=0;exitDy=0;entryX=0.5;entryY=0;entryDx=0;entryDy=0;" parent="1" source="xhsn_PsGptboTVmKEA8n-57" target="xhsn_PsGptboTVmKEA8n-65" edge="1">
          <mxGeometry relative="1" as="geometry" />
        </mxCell>
        <mxCell id="xhsn_PsGptboTVmKEA8n-57" value="Input answer" style="shape=parallelogram;perimeter=parallelogramPerimeter;whiteSpace=wrap;html=1;fixedSize=1;" parent="1" vertex="1">
          <mxGeometry x="660" y="-1750" width="120" height="60" as="geometry" />
        </mxCell>
        <mxCell id="xhsn_PsGptboTVmKEA8n-61" style="edgeStyle=orthogonalEdgeStyle;rounded=0;orthogonalLoop=1;jettySize=auto;html=1;exitX=0.5;exitY=1;exitDx=0;exitDy=0;entryX=0.5;entryY=0;entryDx=0;entryDy=0;" parent="1" source="xhsn_PsGptboTVmKEA8n-60" target="xhsn_PsGptboTVmKEA8n-53" edge="1">
          <mxGeometry relative="1" as="geometry" />
        </mxCell>
        <mxCell id="xhsn_PsGptboTVmKEA8n-64" value="No" style="edgeLabel;html=1;align=center;verticalAlign=middle;resizable=0;points=[];" parent="xhsn_PsGptboTVmKEA8n-61" vertex="1" connectable="0">
          <mxGeometry x="-0.4133" y="1" relative="1" as="geometry">
            <mxPoint as="offset" />
          </mxGeometry>
        </mxCell>
        <mxCell id="xhsn_PsGptboTVmKEA8n-76" style="edgeStyle=orthogonalEdgeStyle;rounded=0;orthogonalLoop=1;jettySize=auto;html=1;exitX=1;exitY=0.5;exitDx=0;exitDy=0;entryX=0;entryY=0.5;entryDx=0;entryDy=0;" parent="1" source="xhsn_PsGptboTVmKEA8n-60" target="xhsn_PsGptboTVmKEA8n-75" edge="1">
          <mxGeometry relative="1" as="geometry" />
        </mxCell>
        <mxCell id="xhsn_PsGptboTVmKEA8n-77" value="Yes" style="edgeLabel;html=1;align=center;verticalAlign=middle;resizable=0;points=[];" parent="xhsn_PsGptboTVmKEA8n-76" vertex="1" connectable="0">
          <mxGeometry x="0.0476" y="1" relative="1" as="geometry">
            <mxPoint as="offset" />
          </mxGeometry>
        </mxCell>
        <mxCell id="xhsn_PsGptboTVmKEA8n-60" value="Has music category,&amp;nbsp;&lt;div&gt;question 1 been asked before?&lt;/div&gt;" style="rhombus;whiteSpace=wrap;html=1;" parent="1" vertex="1">
          <mxGeometry x="640" y="-2065" width="160" height="100" as="geometry" />
        </mxCell>
        <mxCell id="xhsn_PsGptboTVmKEA8n-69" style="edgeStyle=orthogonalEdgeStyle;rounded=0;orthogonalLoop=1;jettySize=auto;html=1;exitX=0.5;exitY=1;exitDx=0;exitDy=0;" parent="1" source="xhsn_PsGptboTVmKEA8n-65" target="xhsn_PsGptboTVmKEA8n-68" edge="1">
          <mxGeometry relative="1" as="geometry" />
        </mxCell>
        <mxCell id="xhsn_PsGptboTVmKEA8n-72" value="No" style="edgeLabel;html=1;align=center;verticalAlign=middle;resizable=0;points=[];" parent="xhsn_PsGptboTVmKEA8n-69" vertex="1" connectable="0">
          <mxGeometry x="-0.1014" relative="1" as="geometry">
            <mxPoint as="offset" />
          </mxGeometry>
        </mxCell>
        <mxCell id="xhsn_PsGptboTVmKEA8n-65" value="Is answer &quot;What is Video&amp;nbsp;&lt;div&gt;Killed the Radio&amp;nbsp;&lt;/div&gt;&lt;div&gt;Star&quot;?&lt;/div&gt;" style="rhombus;whiteSpace=wrap;html=1;" parent="1" vertex="1">
          <mxGeometry x="655" y="-1660" width="130" height="80" as="geometry" />
        </mxCell>
        <mxCell id="xhsn_PsGptboTVmKEA8n-74" style="edgeStyle=orthogonalEdgeStyle;rounded=0;orthogonalLoop=1;jettySize=auto;html=1;exitX=0.5;exitY=1;exitDx=0;exitDy=0;entryX=1;entryY=0.5;entryDx=0;entryDy=0;" parent="1" source="xhsn_PsGptboTVmKEA8n-67" edge="1">
          <mxGeometry relative="1" as="geometry">
            <mxPoint x="570" y="-1370.0000000000002" as="targetPoint" />
            <Array as="points">
              <mxPoint x="800" y="-1370" />
            </Array>
          </mxGeometry>
        </mxCell>
        <mxCell id="xhsn_PsGptboTVmKEA8n-67" value="contestantName is awarded 100 to gameWinnings&amp;nbsp;&lt;div&gt;and selects the next category&lt;/div&gt;" style="rounded=0;whiteSpace=wrap;html=1;" parent="1" vertex="1">
          <mxGeometry x="740" y="-1540" width="120" height="70" as="geometry" />
        </mxCell>
        <mxCell id="xhsn_PsGptboTVmKEA8n-73" style="edgeStyle=orthogonalEdgeStyle;rounded=0;orthogonalLoop=1;jettySize=auto;html=1;exitX=0.5;exitY=1;exitDx=0;exitDy=0;entryX=1;entryY=0.5;entryDx=0;entryDy=0;" parent="1" source="xhsn_PsGptboTVmKEA8n-68" edge="1">
          <mxGeometry relative="1" as="geometry">
            <mxPoint x="570" y="-1370.0000000000002" as="targetPoint" />
            <Array as="points">
              <mxPoint x="645" y="-1370" />
            </Array>
          </mxGeometry>
        </mxCell>
        <mxCell id="xhsn_PsGptboTVmKEA8n-68" value="contestantName&amp;nbsp;loses a turn" style="rounded=0;whiteSpace=wrap;html=1;" parent="1" vertex="1">
          <mxGeometry x="585" y="-1540" width="120" height="60" as="geometry" />
        </mxCell>
        <mxCell id="xhsn_PsGptboTVmKEA8n-70" style="edgeStyle=orthogonalEdgeStyle;rounded=0;orthogonalLoop=1;jettySize=auto;html=1;exitX=1;exitY=0.5;exitDx=0;exitDy=0;entryX=0.567;entryY=0.05;entryDx=0;entryDy=0;entryPerimeter=0;" parent="1" source="xhsn_PsGptboTVmKEA8n-65" target="xhsn_PsGptboTVmKEA8n-67" edge="1">
          <mxGeometry relative="1" as="geometry" />
        </mxCell>
        <mxCell id="xhsn_PsGptboTVmKEA8n-71" value="Yes" style="edgeLabel;html=1;align=center;verticalAlign=middle;resizable=0;points=[];" parent="xhsn_PsGptboTVmKEA8n-70" vertex="1" connectable="0">
          <mxGeometry x="0.1761" y="3" relative="1" as="geometry">
            <mxPoint as="offset" />
          </mxGeometry>
        </mxCell>
        <mxCell id="xhsn_PsGptboTVmKEA8n-79" style="edgeStyle=orthogonalEdgeStyle;rounded=0;orthogonalLoop=1;jettySize=auto;html=1;exitX=0.5;exitY=1;exitDx=0;exitDy=0;entryX=0.5;entryY=0;entryDx=0;entryDy=0;" parent="1" source="xhsn_PsGptboTVmKEA8n-75" target="xhsn_PsGptboTVmKEA8n-78" edge="1">
          <mxGeometry relative="1" as="geometry" />
        </mxCell>
        <mxCell id="xhsn_PsGptboTVmKEA8n-97" value="No" style="edgeLabel;html=1;align=center;verticalAlign=middle;resizable=0;points=[];" parent="xhsn_PsGptboTVmKEA8n-79" vertex="1" connectable="0">
          <mxGeometry x="-0.3333" y="-2" relative="1" as="geometry">
            <mxPoint as="offset" />
          </mxGeometry>
        </mxCell>
        <mxCell id="xhsn_PsGptboTVmKEA8n-98" style="edgeStyle=orthogonalEdgeStyle;rounded=0;orthogonalLoop=1;jettySize=auto;html=1;exitX=1;exitY=0.5;exitDx=0;exitDy=0;" parent="1" source="xhsn_PsGptboTVmKEA8n-75" target="xhsn_PsGptboTVmKEA8n-96" edge="1">
          <mxGeometry relative="1" as="geometry" />
        </mxCell>
        <mxCell id="xhsn_PsGptboTVmKEA8n-99" value="Yes" style="edgeLabel;html=1;align=center;verticalAlign=middle;resizable=0;points=[];" parent="xhsn_PsGptboTVmKEA8n-98" vertex="1" connectable="0">
          <mxGeometry x="-0.2278" y="1" relative="1" as="geometry">
            <mxPoint as="offset" />
          </mxGeometry>
        </mxCell>
        <mxCell id="xhsn_PsGptboTVmKEA8n-75" value="Has music category,&lt;div&gt;question 2 been&lt;/div&gt;&lt;div&gt;asked before?&lt;/div&gt;" style="rhombus;whiteSpace=wrap;html=1;" parent="1" vertex="1">
          <mxGeometry x="870" y="-2060" width="140" height="90" as="geometry" />
        </mxCell>
        <mxCell id="xhsn_PsGptboTVmKEA8n-78" value="Output &quot;The band that sings the song titled &#39;Take On Me&#39;&quot;" style="shape=parallelogram;perimeter=parallelogramPerimeter;whiteSpace=wrap;html=1;fixedSize=1;" parent="1" vertex="1">
          <mxGeometry x="875" y="-1940" width="130" height="60" as="geometry" />
        </mxCell>
        <mxCell id="xhsn_PsGptboTVmKEA8n-84" style="edgeStyle=orthogonalEdgeStyle;rounded=0;orthogonalLoop=1;jettySize=auto;html=1;exitX=0.5;exitY=1;exitDx=0;exitDy=0;entryX=0.5;entryY=0;entryDx=0;entryDy=0;" parent="1" source="xhsn_PsGptboTVmKEA8n-80" target="xhsn_PsGptboTVmKEA8n-83" edge="1">
          <mxGeometry relative="1" as="geometry" />
        </mxCell>
        <mxCell id="xhsn_PsGptboTVmKEA8n-80" value="Begin 5 second timer" style="rounded=0;whiteSpace=wrap;html=1;" parent="1" vertex="1">
          <mxGeometry x="870" y="-1840" width="120" height="60" as="geometry" />
        </mxCell>
        <mxCell id="xhsn_PsGptboTVmKEA8n-82" style="edgeStyle=orthogonalEdgeStyle;rounded=0;orthogonalLoop=1;jettySize=auto;html=1;exitX=0.5;exitY=1;exitDx=0;exitDy=0;entryX=0.581;entryY=0.006;entryDx=0;entryDy=0;entryPerimeter=0;" parent="1" source="xhsn_PsGptboTVmKEA8n-78" target="xhsn_PsGptboTVmKEA8n-80" edge="1">
          <mxGeometry relative="1" as="geometry" />
        </mxCell>
        <mxCell id="xhsn_PsGptboTVmKEA8n-90" style="edgeStyle=orthogonalEdgeStyle;rounded=0;orthogonalLoop=1;jettySize=auto;html=1;exitX=0.5;exitY=1;exitDx=0;exitDy=0;entryX=0.5;entryY=0;entryDx=0;entryDy=0;" parent="1" source="xhsn_PsGptboTVmKEA8n-83" target="xhsn_PsGptboTVmKEA8n-85" edge="1">
          <mxGeometry relative="1" as="geometry" />
        </mxCell>
        <mxCell id="xhsn_PsGptboTVmKEA8n-83" value="Input answer" style="shape=parallelogram;perimeter=parallelogramPerimeter;whiteSpace=wrap;html=1;fixedSize=1;" parent="1" vertex="1">
          <mxGeometry x="880" y="-1750" width="120" height="60" as="geometry" />
        </mxCell>
        <mxCell id="xhsn_PsGptboTVmKEA8n-89" style="edgeStyle=orthogonalEdgeStyle;rounded=0;orthogonalLoop=1;jettySize=auto;html=1;exitX=1;exitY=0.5;exitDx=0;exitDy=0;entryX=0.5;entryY=0;entryDx=0;entryDy=0;" parent="1" source="xhsn_PsGptboTVmKEA8n-85" target="xhsn_PsGptboTVmKEA8n-87" edge="1">
          <mxGeometry relative="1" as="geometry" />
        </mxCell>
        <mxCell id="xhsn_PsGptboTVmKEA8n-93" value="Yes" style="edgeLabel;html=1;align=center;verticalAlign=middle;resizable=0;points=[];" parent="xhsn_PsGptboTVmKEA8n-89" vertex="1" connectable="0">
          <mxGeometry x="-0.4" y="1" relative="1" as="geometry">
            <mxPoint as="offset" />
          </mxGeometry>
        </mxCell>
        <mxCell id="xhsn_PsGptboTVmKEA8n-85" value="Is answer &quot;Who is&amp;nbsp;&lt;div&gt;A-ha&quot;?&lt;/div&gt;" style="rhombus;whiteSpace=wrap;html=1;" parent="1" vertex="1">
          <mxGeometry x="880" y="-1660" width="120" height="80" as="geometry" />
        </mxCell>
        <mxCell id="xhsn_PsGptboTVmKEA8n-94" style="edgeStyle=orthogonalEdgeStyle;rounded=0;orthogonalLoop=1;jettySize=auto;html=1;exitX=0.5;exitY=1;exitDx=0;exitDy=0;entryX=1;entryY=0.5;entryDx=0;entryDy=0;" parent="1" source="xhsn_PsGptboTVmKEA8n-86" edge="1">
          <mxGeometry relative="1" as="geometry">
            <mxPoint x="570" y="-1370.0000000000002" as="targetPoint" />
            <Array as="points">
              <mxPoint x="935" y="-1370" />
            </Array>
          </mxGeometry>
        </mxCell>
        <mxCell id="xhsn_PsGptboTVmKEA8n-86" value="contestantName&amp;nbsp;loses a turn" style="rounded=0;whiteSpace=wrap;html=1;" parent="1" vertex="1">
          <mxGeometry x="875" y="-1540" width="120" height="60" as="geometry" />
        </mxCell>
        <mxCell id="xhsn_PsGptboTVmKEA8n-95" style="edgeStyle=orthogonalEdgeStyle;rounded=0;orthogonalLoop=1;jettySize=auto;html=1;exitX=0.5;exitY=1;exitDx=0;exitDy=0;entryX=1;entryY=0.5;entryDx=0;entryDy=0;" parent="1" source="xhsn_PsGptboTVmKEA8n-87" edge="1">
          <mxGeometry relative="1" as="geometry">
            <mxPoint x="570" y="-1370.0000000000002" as="targetPoint" />
            <Array as="points">
              <mxPoint x="1080" y="-1370" />
            </Array>
          </mxGeometry>
        </mxCell>
        <mxCell id="xhsn_PsGptboTVmKEA8n-87" value="contestantName&amp;nbsp;is awarded 200 to gameWinnings&amp;nbsp;and selects the next category" style="rounded=0;whiteSpace=wrap;html=1;" parent="1" vertex="1">
          <mxGeometry x="1020" y="-1540" width="120" height="70" as="geometry" />
        </mxCell>
        <mxCell id="xhsn_PsGptboTVmKEA8n-88" style="edgeStyle=orthogonalEdgeStyle;rounded=0;orthogonalLoop=1;jettySize=auto;html=1;exitX=0.5;exitY=1;exitDx=0;exitDy=0;entryX=0.564;entryY=-0.028;entryDx=0;entryDy=0;entryPerimeter=0;" parent="1" source="xhsn_PsGptboTVmKEA8n-85" target="xhsn_PsGptboTVmKEA8n-86" edge="1">
          <mxGeometry relative="1" as="geometry" />
        </mxCell>
        <mxCell id="xhsn_PsGptboTVmKEA8n-91" value="No" style="edgeLabel;html=1;align=center;verticalAlign=middle;resizable=0;points=[];" parent="xhsn_PsGptboTVmKEA8n-88" vertex="1" connectable="0">
          <mxGeometry x="-0.332" relative="1" as="geometry">
            <mxPoint as="offset" />
          </mxGeometry>
        </mxCell>
        <mxCell id="xhsn_PsGptboTVmKEA8n-101" style="edgeStyle=orthogonalEdgeStyle;rounded=0;orthogonalLoop=1;jettySize=auto;html=1;exitX=0.5;exitY=1;exitDx=0;exitDy=0;entryX=0.5;entryY=0;entryDx=0;entryDy=0;" parent="1" source="xhsn_PsGptboTVmKEA8n-96" target="xhsn_PsGptboTVmKEA8n-100" edge="1">
          <mxGeometry relative="1" as="geometry" />
        </mxCell>
        <mxCell id="xhsn_PsGptboTVmKEA8n-102" value="No" style="edgeLabel;html=1;align=center;verticalAlign=middle;resizable=0;points=[];" parent="xhsn_PsGptboTVmKEA8n-101" vertex="1" connectable="0">
          <mxGeometry x="-0.4857" y="-2" relative="1" as="geometry">
            <mxPoint as="offset" />
          </mxGeometry>
        </mxCell>
        <mxCell id="xhsn_PsGptboTVmKEA8n-104" style="edgeStyle=orthogonalEdgeStyle;rounded=0;orthogonalLoop=1;jettySize=auto;html=1;exitX=1;exitY=0.5;exitDx=0;exitDy=0;entryX=1;entryY=0.5;entryDx=0;entryDy=0;" parent="1" source="xhsn_PsGptboTVmKEA8n-96" edge="1">
          <mxGeometry relative="1" as="geometry">
            <mxPoint x="570" y="-1370.0000000000002" as="targetPoint" />
            <Array as="points">
              <mxPoint x="1430" y="-2015" />
              <mxPoint x="1430" y="-1370" />
            </Array>
          </mxGeometry>
        </mxCell>
        <mxCell id="xhsn_PsGptboTVmKEA8n-119" value="Yes" style="edgeLabel;html=1;align=center;verticalAlign=middle;resizable=0;points=[];" parent="xhsn_PsGptboTVmKEA8n-104" vertex="1" connectable="0">
          <mxGeometry x="-0.9162" y="-2" relative="1" as="geometry">
            <mxPoint x="-1" as="offset" />
          </mxGeometry>
        </mxCell>
        <mxCell id="xhsn_PsGptboTVmKEA8n-96" value="Has music category, question 3 been asked before?" style="rhombus;whiteSpace=wrap;html=1;" parent="1" vertex="1">
          <mxGeometry x="1130" y="-2055" width="150" height="80" as="geometry" />
        </mxCell>
        <mxCell id="xhsn_PsGptboTVmKEA8n-108" style="edgeStyle=orthogonalEdgeStyle;rounded=0;orthogonalLoop=1;jettySize=auto;html=1;exitX=0.5;exitY=1;exitDx=0;exitDy=0;" parent="1" source="xhsn_PsGptboTVmKEA8n-100" target="xhsn_PsGptboTVmKEA8n-105" edge="1">
          <mxGeometry relative="1" as="geometry" />
        </mxCell>
        <mxCell id="xhsn_PsGptboTVmKEA8n-100" value="Output &quot;The band who sings the song &#39;Wonderwall&#39;&quot;" style="shape=parallelogram;perimeter=parallelogramPerimeter;whiteSpace=wrap;html=1;fixedSize=1;" parent="1" vertex="1">
          <mxGeometry x="1137.5" y="-1940" width="135" height="60" as="geometry" />
        </mxCell>
        <mxCell id="xhsn_PsGptboTVmKEA8n-109" style="edgeStyle=orthogonalEdgeStyle;rounded=0;orthogonalLoop=1;jettySize=auto;html=1;exitX=0.5;exitY=1;exitDx=0;exitDy=0;entryX=0.5;entryY=0;entryDx=0;entryDy=0;" parent="1" source="xhsn_PsGptboTVmKEA8n-105" target="xhsn_PsGptboTVmKEA8n-106" edge="1">
          <mxGeometry relative="1" as="geometry" />
        </mxCell>
        <mxCell id="xhsn_PsGptboTVmKEA8n-105" value="Begin 5 second timer" style="rounded=0;whiteSpace=wrap;html=1;" parent="1" vertex="1">
          <mxGeometry x="1145" y="-1840" width="120" height="60" as="geometry" />
        </mxCell>
        <mxCell id="xhsn_PsGptboTVmKEA8n-110" style="edgeStyle=orthogonalEdgeStyle;rounded=0;orthogonalLoop=1;jettySize=auto;html=1;exitX=0.5;exitY=1;exitDx=0;exitDy=0;entryX=0.5;entryY=0;entryDx=0;entryDy=0;" parent="1" source="xhsn_PsGptboTVmKEA8n-106" target="xhsn_PsGptboTVmKEA8n-107" edge="1">
          <mxGeometry relative="1" as="geometry" />
        </mxCell>
        <mxCell id="xhsn_PsGptboTVmKEA8n-106" value="Input answer" style="shape=parallelogram;perimeter=parallelogramPerimeter;whiteSpace=wrap;html=1;fixedSize=1;" parent="1" vertex="1">
          <mxGeometry x="1140" y="-1760" width="120" height="60" as="geometry" />
        </mxCell>
        <mxCell id="xhsn_PsGptboTVmKEA8n-114" style="edgeStyle=orthogonalEdgeStyle;rounded=0;orthogonalLoop=1;jettySize=auto;html=1;exitX=0.5;exitY=1;exitDx=0;exitDy=0;entryX=0.5;entryY=0;entryDx=0;entryDy=0;" parent="1" source="xhsn_PsGptboTVmKEA8n-107" target="xhsn_PsGptboTVmKEA8n-111" edge="1">
          <mxGeometry relative="1" as="geometry" />
        </mxCell>
        <mxCell id="xhsn_PsGptboTVmKEA8n-120" value="No" style="edgeLabel;html=1;align=center;verticalAlign=middle;resizable=0;points=[];" parent="xhsn_PsGptboTVmKEA8n-114" vertex="1" connectable="0">
          <mxGeometry x="-0.5964" y="2" relative="1" as="geometry">
            <mxPoint as="offset" />
          </mxGeometry>
        </mxCell>
        <mxCell id="xhsn_PsGptboTVmKEA8n-107" value="Is answer &quot;Who is Oasis&quot;?" style="rhombus;whiteSpace=wrap;html=1;" parent="1" vertex="1">
          <mxGeometry x="1165" y="-1670" width="80" height="80" as="geometry" />
        </mxCell>
        <mxCell id="xhsn_PsGptboTVmKEA8n-116" style="edgeStyle=orthogonalEdgeStyle;rounded=0;orthogonalLoop=1;jettySize=auto;html=1;exitX=0.5;exitY=1;exitDx=0;exitDy=0;entryX=1;entryY=0.5;entryDx=0;entryDy=0;" parent="1" source="xhsn_PsGptboTVmKEA8n-111" edge="1">
          <mxGeometry relative="1" as="geometry">
            <mxPoint x="570" y="-1370.0000000000002" as="targetPoint" />
            <Array as="points">
              <mxPoint x="1213" y="-1370" />
            </Array>
          </mxGeometry>
        </mxCell>
        <mxCell id="xhsn_PsGptboTVmKEA8n-111" value="contestantName&amp;nbsp;loses a turn" style="rounded=0;whiteSpace=wrap;html=1;" parent="1" vertex="1">
          <mxGeometry x="1152.5" y="-1540" width="120" height="60" as="geometry" />
        </mxCell>
        <mxCell id="xhsn_PsGptboTVmKEA8n-117" style="edgeStyle=orthogonalEdgeStyle;rounded=0;orthogonalLoop=1;jettySize=auto;html=1;exitX=0.5;exitY=1;exitDx=0;exitDy=0;entryX=1;entryY=0.5;entryDx=0;entryDy=0;" parent="1" source="xhsn_PsGptboTVmKEA8n-113" edge="1">
          <mxGeometry relative="1" as="geometry">
            <mxPoint x="570" y="-1370.0000000000002" as="targetPoint" />
            <Array as="points">
              <mxPoint x="1350" y="-1370" />
            </Array>
          </mxGeometry>
        </mxCell>
        <mxCell id="xhsn_PsGptboTVmKEA8n-113" value="contestantName&amp;nbsp;is awarded 300 to gameWinnings&amp;nbsp;and selects the next category" style="rounded=0;whiteSpace=wrap;html=1;" parent="1" vertex="1">
          <mxGeometry x="1290" y="-1600" width="120" height="70" as="geometry" />
        </mxCell>
        <mxCell id="xhsn_PsGptboTVmKEA8n-115" style="edgeStyle=orthogonalEdgeStyle;rounded=0;orthogonalLoop=1;jettySize=auto;html=1;exitX=1;exitY=0.5;exitDx=0;exitDy=0;entryX=0.439;entryY=0.006;entryDx=0;entryDy=0;entryPerimeter=0;" parent="1" source="xhsn_PsGptboTVmKEA8n-107" target="xhsn_PsGptboTVmKEA8n-113" edge="1">
          <mxGeometry relative="1" as="geometry" />
        </mxCell>
        <mxCell id="xhsn_PsGptboTVmKEA8n-121" value="Yes" style="edgeLabel;html=1;align=center;verticalAlign=middle;resizable=0;points=[];" parent="xhsn_PsGptboTVmKEA8n-115" vertex="1" connectable="0">
          <mxGeometry x="-0.1731" relative="1" as="geometry">
            <mxPoint as="offset" />
          </mxGeometry>
        </mxCell>
        <mxCell id="xhsn_PsGptboTVmKEA8n-122" style="edgeStyle=orthogonalEdgeStyle;rounded=0;orthogonalLoop=1;jettySize=auto;html=1;exitX=0.5;exitY=1;exitDx=0;exitDy=0;entryX=0.5;entryY=0;entryDx=0;entryDy=0;" parent="1" target="xhsn_PsGptboTVmKEA8n-128" edge="1">
          <mxGeometry relative="1" as="geometry">
            <mxPoint x="525" y="-1230.0000000000002" as="sourcePoint" />
          </mxGeometry>
        </mxCell>
        <mxCell id="xhsn_PsGptboTVmKEA8n-126" style="edgeStyle=orthogonalEdgeStyle;rounded=0;orthogonalLoop=1;jettySize=auto;html=1;exitX=1;exitY=0.5;exitDx=0;exitDy=0;entryX=0;entryY=0.5;entryDx=0;entryDy=0;" parent="1" source="xhsn_PsGptboTVmKEA8n-128" target="xhsn_PsGptboTVmKEA8n-140" edge="1">
          <mxGeometry relative="1" as="geometry" />
        </mxCell>
        <mxCell id="xhsn_PsGptboTVmKEA8n-127" value="Yes" style="edgeLabel;html=1;align=center;verticalAlign=middle;resizable=0;points=[];" parent="xhsn_PsGptboTVmKEA8n-126" vertex="1" connectable="0">
          <mxGeometry x="-0.1879" y="1" relative="1" as="geometry">
            <mxPoint as="offset" />
          </mxGeometry>
        </mxCell>
        <mxCell id="xhsn_PsGptboTVmKEA8n-128" value="Did contestantName&amp;nbsp;choose science category?" style="rhombus;whiteSpace=wrap;html=1;" parent="1" vertex="1">
          <mxGeometry x="450" y="-1210" width="150" height="110" as="geometry" />
        </mxCell>
        <mxCell id="xhsn_PsGptboTVmKEA8n-130" style="edgeStyle=orthogonalEdgeStyle;rounded=0;orthogonalLoop=1;jettySize=auto;html=1;exitX=0.5;exitY=1;exitDx=0;exitDy=0;entryX=0.5;entryY=0;entryDx=0;entryDy=0;" parent="1" source="xhsn_PsGptboTVmKEA8n-131" target="xhsn_PsGptboTVmKEA8n-133" edge="1">
          <mxGeometry relative="1" as="geometry" />
        </mxCell>
        <mxCell id="xhsn_PsGptboTVmKEA8n-131" value="Output &quot;The number of bones&amp;nbsp;&lt;div&gt;sharks have&lt;span style=&quot;background-color: initial;&quot;&gt;&quot;&lt;/span&gt;&lt;/div&gt;" style="shape=parallelogram;perimeter=parallelogramPerimeter;whiteSpace=wrap;html=1;fixedSize=1;" parent="1" vertex="1">
          <mxGeometry x="635" y="-1080" width="200" height="60" as="geometry" />
        </mxCell>
        <mxCell id="xhsn_PsGptboTVmKEA8n-132" style="edgeStyle=orthogonalEdgeStyle;rounded=0;orthogonalLoop=1;jettySize=auto;html=1;exitX=0.5;exitY=1;exitDx=0;exitDy=0;entryX=0.5;entryY=0;entryDx=0;entryDy=0;" parent="1" source="xhsn_PsGptboTVmKEA8n-133" target="xhsn_PsGptboTVmKEA8n-135" edge="1">
          <mxGeometry relative="1" as="geometry" />
        </mxCell>
        <mxCell id="xhsn_PsGptboTVmKEA8n-133" value="Begin 5 second timer" style="rounded=0;whiteSpace=wrap;html=1;" parent="1" vertex="1">
          <mxGeometry x="675" y="-980" width="120" height="60" as="geometry" />
        </mxCell>
        <mxCell id="xhsn_PsGptboTVmKEA8n-134" style="edgeStyle=orthogonalEdgeStyle;rounded=0;orthogonalLoop=1;jettySize=auto;html=1;exitX=0.5;exitY=1;exitDx=0;exitDy=0;entryX=0.5;entryY=0;entryDx=0;entryDy=0;" parent="1" source="xhsn_PsGptboTVmKEA8n-135" target="xhsn_PsGptboTVmKEA8n-143" edge="1">
          <mxGeometry relative="1" as="geometry" />
        </mxCell>
        <mxCell id="xhsn_PsGptboTVmKEA8n-135" value="Input answer" style="shape=parallelogram;perimeter=parallelogramPerimeter;whiteSpace=wrap;html=1;fixedSize=1;" parent="1" vertex="1">
          <mxGeometry x="675" y="-890" width="120" height="60" as="geometry" />
        </mxCell>
        <mxCell id="xhsn_PsGptboTVmKEA8n-136" style="edgeStyle=orthogonalEdgeStyle;rounded=0;orthogonalLoop=1;jettySize=auto;html=1;exitX=0.5;exitY=1;exitDx=0;exitDy=0;entryX=0.5;entryY=0;entryDx=0;entryDy=0;" parent="1" source="xhsn_PsGptboTVmKEA8n-140" target="xhsn_PsGptboTVmKEA8n-131" edge="1">
          <mxGeometry relative="1" as="geometry" />
        </mxCell>
        <mxCell id="xhsn_PsGptboTVmKEA8n-137" value="No" style="edgeLabel;html=1;align=center;verticalAlign=middle;resizable=0;points=[];" parent="xhsn_PsGptboTVmKEA8n-136" vertex="1" connectable="0">
          <mxGeometry x="-0.4133" y="1" relative="1" as="geometry">
            <mxPoint as="offset" />
          </mxGeometry>
        </mxCell>
        <mxCell id="xhsn_PsGptboTVmKEA8n-138" style="edgeStyle=orthogonalEdgeStyle;rounded=0;orthogonalLoop=1;jettySize=auto;html=1;exitX=1;exitY=0.5;exitDx=0;exitDy=0;entryX=0;entryY=0.5;entryDx=0;entryDy=0;" parent="1" source="xhsn_PsGptboTVmKEA8n-140" target="xhsn_PsGptboTVmKEA8n-154" edge="1">
          <mxGeometry relative="1" as="geometry" />
        </mxCell>
        <mxCell id="xhsn_PsGptboTVmKEA8n-139" value="Yes" style="edgeLabel;html=1;align=center;verticalAlign=middle;resizable=0;points=[];" parent="xhsn_PsGptboTVmKEA8n-138" vertex="1" connectable="0">
          <mxGeometry x="0.0476" y="1" relative="1" as="geometry">
            <mxPoint as="offset" />
          </mxGeometry>
        </mxCell>
        <mxCell id="xhsn_PsGptboTVmKEA8n-140" value="Has science category,&amp;nbsp;&lt;div&gt;question 1 been asked before?&lt;/div&gt;" style="rhombus;whiteSpace=wrap;html=1;" parent="1" vertex="1">
          <mxGeometry x="655" y="-1205" width="160" height="100" as="geometry" />
        </mxCell>
        <mxCell id="xhsn_PsGptboTVmKEA8n-141" style="edgeStyle=orthogonalEdgeStyle;rounded=0;orthogonalLoop=1;jettySize=auto;html=1;exitX=0.5;exitY=1;exitDx=0;exitDy=0;" parent="1" source="xhsn_PsGptboTVmKEA8n-143" target="xhsn_PsGptboTVmKEA8n-147" edge="1">
          <mxGeometry relative="1" as="geometry" />
        </mxCell>
        <mxCell id="xhsn_PsGptboTVmKEA8n-142" value="No" style="edgeLabel;html=1;align=center;verticalAlign=middle;resizable=0;points=[];" parent="xhsn_PsGptboTVmKEA8n-141" vertex="1" connectable="0">
          <mxGeometry x="-0.1014" relative="1" as="geometry">
            <mxPoint as="offset" />
          </mxGeometry>
        </mxCell>
        <mxCell id="xhsn_PsGptboTVmKEA8n-143" value="Is answer &quot;What is zero&lt;span style=&quot;background-color: initial;&quot;&gt;&quot;?&lt;/span&gt;" style="rhombus;whiteSpace=wrap;html=1;" parent="1" vertex="1">
          <mxGeometry x="670" y="-800" width="130" height="80" as="geometry" />
        </mxCell>
        <mxCell id="xhsn_PsGptboTVmKEA8n-144" style="edgeStyle=orthogonalEdgeStyle;rounded=0;orthogonalLoop=1;jettySize=auto;html=1;exitX=0.5;exitY=1;exitDx=0;exitDy=0;entryX=1;entryY=0.5;entryDx=0;entryDy=0;" parent="1" source="xhsn_PsGptboTVmKEA8n-145" edge="1">
          <mxGeometry relative="1" as="geometry">
            <mxPoint x="585" y="-510" as="targetPoint" />
            <Array as="points">
              <mxPoint x="815" y="-510" />
            </Array>
          </mxGeometry>
        </mxCell>
        <mxCell id="xhsn_PsGptboTVmKEA8n-145" value="contestantName is awarded 100 to gameWinnings&amp;nbsp;and selects the next category" style="rounded=0;whiteSpace=wrap;html=1;" parent="1" vertex="1">
          <mxGeometry x="755" y="-680" width="120" height="70" as="geometry" />
        </mxCell>
        <mxCell id="xhsn_PsGptboTVmKEA8n-146" style="edgeStyle=orthogonalEdgeStyle;rounded=0;orthogonalLoop=1;jettySize=auto;html=1;exitX=0.5;exitY=1;exitDx=0;exitDy=0;entryX=1;entryY=0.5;entryDx=0;entryDy=0;" parent="1" source="xhsn_PsGptboTVmKEA8n-147" edge="1">
          <mxGeometry relative="1" as="geometry">
            <mxPoint x="585" y="-510" as="targetPoint" />
            <Array as="points">
              <mxPoint x="660" y="-510" />
            </Array>
          </mxGeometry>
        </mxCell>
        <mxCell id="xhsn_PsGptboTVmKEA8n-147" value="contestantName&amp;nbsp;loses a turn" style="rounded=0;whiteSpace=wrap;html=1;" parent="1" vertex="1">
          <mxGeometry x="600" y="-680" width="120" height="60" as="geometry" />
        </mxCell>
        <mxCell id="xhsn_PsGptboTVmKEA8n-148" style="edgeStyle=orthogonalEdgeStyle;rounded=0;orthogonalLoop=1;jettySize=auto;html=1;exitX=1;exitY=0.5;exitDx=0;exitDy=0;entryX=0.567;entryY=0.05;entryDx=0;entryDy=0;entryPerimeter=0;" parent="1" source="xhsn_PsGptboTVmKEA8n-143" target="xhsn_PsGptboTVmKEA8n-145" edge="1">
          <mxGeometry relative="1" as="geometry" />
        </mxCell>
        <mxCell id="xhsn_PsGptboTVmKEA8n-149" value="Yes" style="edgeLabel;html=1;align=center;verticalAlign=middle;resizable=0;points=[];" parent="xhsn_PsGptboTVmKEA8n-148" vertex="1" connectable="0">
          <mxGeometry x="0.1761" y="3" relative="1" as="geometry">
            <mxPoint as="offset" />
          </mxGeometry>
        </mxCell>
        <mxCell id="xhsn_PsGptboTVmKEA8n-150" style="edgeStyle=orthogonalEdgeStyle;rounded=0;orthogonalLoop=1;jettySize=auto;html=1;exitX=0.5;exitY=1;exitDx=0;exitDy=0;entryX=0.5;entryY=0;entryDx=0;entryDy=0;" parent="1" source="xhsn_PsGptboTVmKEA8n-154" target="xhsn_PsGptboTVmKEA8n-155" edge="1">
          <mxGeometry relative="1" as="geometry" />
        </mxCell>
        <mxCell id="xhsn_PsGptboTVmKEA8n-151" value="No" style="edgeLabel;html=1;align=center;verticalAlign=middle;resizable=0;points=[];" parent="xhsn_PsGptboTVmKEA8n-150" vertex="1" connectable="0">
          <mxGeometry x="-0.3333" y="-2" relative="1" as="geometry">
            <mxPoint as="offset" />
          </mxGeometry>
        </mxCell>
        <mxCell id="xhsn_PsGptboTVmKEA8n-152" style="edgeStyle=orthogonalEdgeStyle;rounded=0;orthogonalLoop=1;jettySize=auto;html=1;exitX=1;exitY=0.5;exitDx=0;exitDy=0;" parent="1" source="xhsn_PsGptboTVmKEA8n-154" target="xhsn_PsGptboTVmKEA8n-174" edge="1">
          <mxGeometry relative="1" as="geometry" />
        </mxCell>
        <mxCell id="xhsn_PsGptboTVmKEA8n-153" value="Yes" style="edgeLabel;html=1;align=center;verticalAlign=middle;resizable=0;points=[];" parent="xhsn_PsGptboTVmKEA8n-152" vertex="1" connectable="0">
          <mxGeometry x="-0.2278" y="1" relative="1" as="geometry">
            <mxPoint as="offset" />
          </mxGeometry>
        </mxCell>
        <mxCell id="xhsn_PsGptboTVmKEA8n-154" value="Has science category,&lt;div&gt;question 2 been&lt;/div&gt;&lt;div&gt;asked before?&lt;/div&gt;" style="rhombus;whiteSpace=wrap;html=1;" parent="1" vertex="1">
          <mxGeometry x="885" y="-1200" width="140" height="90" as="geometry" />
        </mxCell>
        <mxCell id="xhsn_PsGptboTVmKEA8n-155" value="Output &quot;The hardest natural substance on Earth&quot;" style="shape=parallelogram;perimeter=parallelogramPerimeter;whiteSpace=wrap;html=1;fixedSize=1;" parent="1" vertex="1">
          <mxGeometry x="890" y="-1080" width="130" height="60" as="geometry" />
        </mxCell>
        <mxCell id="xhsn_PsGptboTVmKEA8n-156" style="edgeStyle=orthogonalEdgeStyle;rounded=0;orthogonalLoop=1;jettySize=auto;html=1;exitX=0.5;exitY=1;exitDx=0;exitDy=0;entryX=0.5;entryY=0;entryDx=0;entryDy=0;" parent="1" source="xhsn_PsGptboTVmKEA8n-157" target="xhsn_PsGptboTVmKEA8n-160" edge="1">
          <mxGeometry relative="1" as="geometry" />
        </mxCell>
        <mxCell id="xhsn_PsGptboTVmKEA8n-157" value="Begin 5 second timer" style="rounded=0;whiteSpace=wrap;html=1;" parent="1" vertex="1">
          <mxGeometry x="885" y="-980" width="120" height="60" as="geometry" />
        </mxCell>
        <mxCell id="xhsn_PsGptboTVmKEA8n-158" style="edgeStyle=orthogonalEdgeStyle;rounded=0;orthogonalLoop=1;jettySize=auto;html=1;exitX=0.5;exitY=1;exitDx=0;exitDy=0;entryX=0.581;entryY=0.006;entryDx=0;entryDy=0;entryPerimeter=0;" parent="1" source="xhsn_PsGptboTVmKEA8n-155" target="xhsn_PsGptboTVmKEA8n-157" edge="1">
          <mxGeometry relative="1" as="geometry" />
        </mxCell>
        <mxCell id="xhsn_PsGptboTVmKEA8n-159" style="edgeStyle=orthogonalEdgeStyle;rounded=0;orthogonalLoop=1;jettySize=auto;html=1;exitX=0.5;exitY=1;exitDx=0;exitDy=0;entryX=0.5;entryY=0;entryDx=0;entryDy=0;" parent="1" source="xhsn_PsGptboTVmKEA8n-160" target="xhsn_PsGptboTVmKEA8n-163" edge="1">
          <mxGeometry relative="1" as="geometry" />
        </mxCell>
        <mxCell id="xhsn_PsGptboTVmKEA8n-160" value="Input answer" style="shape=parallelogram;perimeter=parallelogramPerimeter;whiteSpace=wrap;html=1;fixedSize=1;" parent="1" vertex="1">
          <mxGeometry x="895" y="-890" width="120" height="60" as="geometry" />
        </mxCell>
        <mxCell id="xhsn_PsGptboTVmKEA8n-161" style="edgeStyle=orthogonalEdgeStyle;rounded=0;orthogonalLoop=1;jettySize=auto;html=1;exitX=1;exitY=0.5;exitDx=0;exitDy=0;entryX=0.5;entryY=0;entryDx=0;entryDy=0;" parent="1" source="xhsn_PsGptboTVmKEA8n-163" target="xhsn_PsGptboTVmKEA8n-167" edge="1">
          <mxGeometry relative="1" as="geometry" />
        </mxCell>
        <mxCell id="xhsn_PsGptboTVmKEA8n-162" value="Yes" style="edgeLabel;html=1;align=center;verticalAlign=middle;resizable=0;points=[];" parent="xhsn_PsGptboTVmKEA8n-161" vertex="1" connectable="0">
          <mxGeometry x="-0.4" y="1" relative="1" as="geometry">
            <mxPoint as="offset" />
          </mxGeometry>
        </mxCell>
        <mxCell id="xhsn_PsGptboTVmKEA8n-163" value="Is answer &quot;What is diamond&quot;?" style="rhombus;whiteSpace=wrap;html=1;" parent="1" vertex="1">
          <mxGeometry x="895" y="-800" width="120" height="80" as="geometry" />
        </mxCell>
        <mxCell id="xhsn_PsGptboTVmKEA8n-164" style="edgeStyle=orthogonalEdgeStyle;rounded=0;orthogonalLoop=1;jettySize=auto;html=1;exitX=0.5;exitY=1;exitDx=0;exitDy=0;entryX=1;entryY=0.5;entryDx=0;entryDy=0;" parent="1" source="xhsn_PsGptboTVmKEA8n-165" edge="1">
          <mxGeometry relative="1" as="geometry">
            <mxPoint x="585" y="-510" as="targetPoint" />
            <Array as="points">
              <mxPoint x="950" y="-510" />
            </Array>
          </mxGeometry>
        </mxCell>
        <mxCell id="xhsn_PsGptboTVmKEA8n-165" value="contestantName&amp;nbsp;loses a turn" style="rounded=0;whiteSpace=wrap;html=1;" parent="1" vertex="1">
          <mxGeometry x="890" y="-680" width="120" height="60" as="geometry" />
        </mxCell>
        <mxCell id="xhsn_PsGptboTVmKEA8n-166" style="edgeStyle=orthogonalEdgeStyle;rounded=0;orthogonalLoop=1;jettySize=auto;html=1;exitX=0.5;exitY=1;exitDx=0;exitDy=0;entryX=1;entryY=0.5;entryDx=0;entryDy=0;" parent="1" source="xhsn_PsGptboTVmKEA8n-167" edge="1">
          <mxGeometry relative="1" as="geometry">
            <mxPoint x="585" y="-510" as="targetPoint" />
            <Array as="points">
              <mxPoint x="1095" y="-510" />
            </Array>
          </mxGeometry>
        </mxCell>
        <mxCell id="xhsn_PsGptboTVmKEA8n-167" value="contestantName&amp;nbsp;is awarded 200 to gameWinnings&amp;nbsp;and selects the next category" style="rounded=0;whiteSpace=wrap;html=1;" parent="1" vertex="1">
          <mxGeometry x="1035" y="-680" width="120" height="70" as="geometry" />
        </mxCell>
        <mxCell id="xhsn_PsGptboTVmKEA8n-168" style="edgeStyle=orthogonalEdgeStyle;rounded=0;orthogonalLoop=1;jettySize=auto;html=1;exitX=0.5;exitY=1;exitDx=0;exitDy=0;entryX=0.564;entryY=-0.028;entryDx=0;entryDy=0;entryPerimeter=0;" parent="1" source="xhsn_PsGptboTVmKEA8n-163" target="xhsn_PsGptboTVmKEA8n-165" edge="1">
          <mxGeometry relative="1" as="geometry" />
        </mxCell>
        <mxCell id="xhsn_PsGptboTVmKEA8n-169" value="No" style="edgeLabel;html=1;align=center;verticalAlign=middle;resizable=0;points=[];" parent="xhsn_PsGptboTVmKEA8n-168" vertex="1" connectable="0">
          <mxGeometry x="-0.332" relative="1" as="geometry">
            <mxPoint as="offset" />
          </mxGeometry>
        </mxCell>
        <mxCell id="xhsn_PsGptboTVmKEA8n-170" style="edgeStyle=orthogonalEdgeStyle;rounded=0;orthogonalLoop=1;jettySize=auto;html=1;exitX=0.5;exitY=1;exitDx=0;exitDy=0;entryX=0.5;entryY=0;entryDx=0;entryDy=0;" parent="1" source="xhsn_PsGptboTVmKEA8n-174" target="xhsn_PsGptboTVmKEA8n-176" edge="1">
          <mxGeometry relative="1" as="geometry" />
        </mxCell>
        <mxCell id="xhsn_PsGptboTVmKEA8n-171" value="No" style="edgeLabel;html=1;align=center;verticalAlign=middle;resizable=0;points=[];" parent="xhsn_PsGptboTVmKEA8n-170" vertex="1" connectable="0">
          <mxGeometry x="-0.4857" y="-2" relative="1" as="geometry">
            <mxPoint as="offset" />
          </mxGeometry>
        </mxCell>
        <mxCell id="xhsn_PsGptboTVmKEA8n-172" style="edgeStyle=orthogonalEdgeStyle;rounded=0;orthogonalLoop=1;jettySize=auto;html=1;exitX=1;exitY=0.5;exitDx=0;exitDy=0;entryX=1;entryY=0.5;entryDx=0;entryDy=0;" parent="1" source="xhsn_PsGptboTVmKEA8n-174" edge="1">
          <mxGeometry relative="1" as="geometry">
            <mxPoint x="585" y="-510" as="targetPoint" />
            <Array as="points">
              <mxPoint x="1445" y="-1155" />
              <mxPoint x="1445" y="-510" />
            </Array>
          </mxGeometry>
        </mxCell>
        <mxCell id="xhsn_PsGptboTVmKEA8n-173" value="Yes" style="edgeLabel;html=1;align=center;verticalAlign=middle;resizable=0;points=[];" parent="xhsn_PsGptboTVmKEA8n-172" vertex="1" connectable="0">
          <mxGeometry x="-0.9162" y="-2" relative="1" as="geometry">
            <mxPoint x="-1" as="offset" />
          </mxGeometry>
        </mxCell>
        <mxCell id="xhsn_PsGptboTVmKEA8n-174" value="Has science category, question 3 been asked before?" style="rhombus;whiteSpace=wrap;html=1;" parent="1" vertex="1">
          <mxGeometry x="1145" y="-1195" width="150" height="80" as="geometry" />
        </mxCell>
        <mxCell id="xhsn_PsGptboTVmKEA8n-175" style="edgeStyle=orthogonalEdgeStyle;rounded=0;orthogonalLoop=1;jettySize=auto;html=1;exitX=0.5;exitY=1;exitDx=0;exitDy=0;" parent="1" source="xhsn_PsGptboTVmKEA8n-176" target="xhsn_PsGptboTVmKEA8n-178" edge="1">
          <mxGeometry relative="1" as="geometry" />
        </mxCell>
        <mxCell id="xhsn_PsGptboTVmKEA8n-176" value="Output &quot;The chemical name for rust&quot;" style="shape=parallelogram;perimeter=parallelogramPerimeter;whiteSpace=wrap;html=1;fixedSize=1;" parent="1" vertex="1">
          <mxGeometry x="1152.5" y="-1080" width="135" height="60" as="geometry" />
        </mxCell>
        <mxCell id="xhsn_PsGptboTVmKEA8n-177" style="edgeStyle=orthogonalEdgeStyle;rounded=0;orthogonalLoop=1;jettySize=auto;html=1;exitX=0.5;exitY=1;exitDx=0;exitDy=0;entryX=0.5;entryY=0;entryDx=0;entryDy=0;" parent="1" source="xhsn_PsGptboTVmKEA8n-178" target="xhsn_PsGptboTVmKEA8n-180" edge="1">
          <mxGeometry relative="1" as="geometry" />
        </mxCell>
        <mxCell id="xhsn_PsGptboTVmKEA8n-178" value="Begin 5 second timer" style="rounded=0;whiteSpace=wrap;html=1;" parent="1" vertex="1">
          <mxGeometry x="1160" y="-980" width="120" height="60" as="geometry" />
        </mxCell>
        <mxCell id="xhsn_PsGptboTVmKEA8n-179" style="edgeStyle=orthogonalEdgeStyle;rounded=0;orthogonalLoop=1;jettySize=auto;html=1;exitX=0.5;exitY=1;exitDx=0;exitDy=0;entryX=0.5;entryY=0;entryDx=0;entryDy=0;" parent="1" source="xhsn_PsGptboTVmKEA8n-180" target="xhsn_PsGptboTVmKEA8n-183" edge="1">
          <mxGeometry relative="1" as="geometry" />
        </mxCell>
        <mxCell id="xhsn_PsGptboTVmKEA8n-180" value="Input answer" style="shape=parallelogram;perimeter=parallelogramPerimeter;whiteSpace=wrap;html=1;fixedSize=1;" parent="1" vertex="1">
          <mxGeometry x="1155" y="-900" width="120" height="60" as="geometry" />
        </mxCell>
        <mxCell id="xhsn_PsGptboTVmKEA8n-181" style="edgeStyle=orthogonalEdgeStyle;rounded=0;orthogonalLoop=1;jettySize=auto;html=1;exitX=0.5;exitY=1;exitDx=0;exitDy=0;entryX=0.5;entryY=0;entryDx=0;entryDy=0;" parent="1" source="xhsn_PsGptboTVmKEA8n-183" target="xhsn_PsGptboTVmKEA8n-185" edge="1">
          <mxGeometry relative="1" as="geometry" />
        </mxCell>
        <mxCell id="xhsn_PsGptboTVmKEA8n-182" value="No" style="edgeLabel;html=1;align=center;verticalAlign=middle;resizable=0;points=[];" parent="xhsn_PsGptboTVmKEA8n-181" vertex="1" connectable="0">
          <mxGeometry x="-0.5964" y="2" relative="1" as="geometry">
            <mxPoint as="offset" />
          </mxGeometry>
        </mxCell>
        <mxCell id="xhsn_PsGptboTVmKEA8n-183" value="Is answer &quot;What is Iron Oxide&quot;?" style="rhombus;whiteSpace=wrap;html=1;" parent="1" vertex="1">
          <mxGeometry x="1180" y="-810" width="80" height="80" as="geometry" />
        </mxCell>
        <mxCell id="xhsn_PsGptboTVmKEA8n-184" style="edgeStyle=orthogonalEdgeStyle;rounded=0;orthogonalLoop=1;jettySize=auto;html=1;exitX=0.5;exitY=1;exitDx=0;exitDy=0;entryX=1;entryY=0.5;entryDx=0;entryDy=0;" parent="1" source="xhsn_PsGptboTVmKEA8n-185" edge="1">
          <mxGeometry relative="1" as="geometry">
            <mxPoint x="585" y="-510" as="targetPoint" />
            <Array as="points">
              <mxPoint x="1228" y="-510" />
            </Array>
          </mxGeometry>
        </mxCell>
        <mxCell id="xhsn_PsGptboTVmKEA8n-185" value="contestantName&amp;nbsp;loses a turn" style="rounded=0;whiteSpace=wrap;html=1;" parent="1" vertex="1">
          <mxGeometry x="1167.5" y="-680" width="120" height="60" as="geometry" />
        </mxCell>
        <mxCell id="xhsn_PsGptboTVmKEA8n-186" style="edgeStyle=orthogonalEdgeStyle;rounded=0;orthogonalLoop=1;jettySize=auto;html=1;exitX=0.5;exitY=1;exitDx=0;exitDy=0;entryX=1;entryY=0.5;entryDx=0;entryDy=0;" parent="1" source="xhsn_PsGptboTVmKEA8n-187" edge="1">
          <mxGeometry relative="1" as="geometry">
            <mxPoint x="585" y="-510" as="targetPoint" />
            <Array as="points">
              <mxPoint x="1365" y="-510" />
            </Array>
          </mxGeometry>
        </mxCell>
        <mxCell id="xhsn_PsGptboTVmKEA8n-187" value="contestantName&amp;nbsp;is awarded 300 to gameWinnings&amp;nbsp;and selects the next category" style="rounded=0;whiteSpace=wrap;html=1;" parent="1" vertex="1">
          <mxGeometry x="1305" y="-740" width="120" height="70" as="geometry" />
        </mxCell>
        <mxCell id="xhsn_PsGptboTVmKEA8n-188" style="edgeStyle=orthogonalEdgeStyle;rounded=0;orthogonalLoop=1;jettySize=auto;html=1;exitX=1;exitY=0.5;exitDx=0;exitDy=0;entryX=0.439;entryY=0.006;entryDx=0;entryDy=0;entryPerimeter=0;" parent="1" source="xhsn_PsGptboTVmKEA8n-183" target="xhsn_PsGptboTVmKEA8n-187" edge="1">
          <mxGeometry relative="1" as="geometry" />
        </mxCell>
        <mxCell id="xhsn_PsGptboTVmKEA8n-189" value="Yes" style="edgeLabel;html=1;align=center;verticalAlign=middle;resizable=0;points=[];" parent="xhsn_PsGptboTVmKEA8n-188" vertex="1" connectable="0">
          <mxGeometry x="-0.1731" relative="1" as="geometry">
            <mxPoint as="offset" />
          </mxGeometry>
        </mxCell>
        <mxCell id="xhsn_PsGptboTVmKEA8n-190" value="Science ()" style="html=1;dashed=0;whiteSpace=wrap;shape=mxgraph.dfd.loop" parent="1" vertex="1">
          <mxGeometry x="485" y="-1260" width="80" height="30" as="geometry" />
        </mxCell>
        <mxCell id="xhsn_PsGptboTVmKEA8n-192" value="Return" style="html=1;dashed=0;whiteSpace=wrap;shape=mxgraph.dfd.loop" parent="1" vertex="1">
          <mxGeometry x="505" y="-525" width="80" height="30" as="geometry" />
        </mxCell>
        <mxCell id="xhsn_PsGptboTVmKEA8n-193" style="edgeStyle=orthogonalEdgeStyle;rounded=0;orthogonalLoop=1;jettySize=auto;html=1;exitX=0.5;exitY=1;exitDx=0;exitDy=0;entryX=0.257;entryY=-0.017;entryDx=0;entryDy=0;entryPerimeter=0;" parent="1" source="xhsn_PsGptboTVmKEA8n-128" target="xhsn_PsGptboTVmKEA8n-192" edge="1">
          <mxGeometry relative="1" as="geometry" />
        </mxCell>
        <mxCell id="xhsn_PsGptboTVmKEA8n-201" value="No" style="edgeLabel;html=1;align=center;verticalAlign=middle;resizable=0;points=[];" parent="xhsn_PsGptboTVmKEA8n-193" vertex="1" connectable="0">
          <mxGeometry x="0.0143" y="-3" relative="1" as="geometry">
            <mxPoint as="offset" />
          </mxGeometry>
        </mxCell>
        <mxCell id="xhsn_PsGptboTVmKEA8n-194" value="Music ()" style="html=1;dashed=0;whiteSpace=wrap;shape=mxgraph.dfd.loop" parent="1" vertex="1">
          <mxGeometry x="470" y="-2120" width="80" height="30" as="geometry" />
        </mxCell>
        <mxCell id="xhsn_PsGptboTVmKEA8n-195" value="Return" style="html=1;dashed=0;whiteSpace=wrap;shape=mxgraph.dfd.loop" parent="1" vertex="1">
          <mxGeometry x="490" y="-1385" width="80" height="30" as="geometry" />
        </mxCell>
        <mxCell id="xhsn_PsGptboTVmKEA8n-202" style="edgeStyle=orthogonalEdgeStyle;rounded=0;orthogonalLoop=1;jettySize=auto;html=1;exitX=0.5;exitY=1;exitDx=0;exitDy=0;entryX=0.5;entryY=0;entryDx=0;entryDy=0;" parent="1" target="xhsn_PsGptboTVmKEA8n-205" edge="1">
          <mxGeometry relative="1" as="geometry">
            <mxPoint x="560" y="-400.0000000000002" as="sourcePoint" />
          </mxGeometry>
        </mxCell>
        <mxCell id="xhsn_PsGptboTVmKEA8n-203" style="edgeStyle=orthogonalEdgeStyle;rounded=0;orthogonalLoop=1;jettySize=auto;html=1;exitX=1;exitY=0.5;exitDx=0;exitDy=0;entryX=0;entryY=0.5;entryDx=0;entryDy=0;" parent="1" source="xhsn_PsGptboTVmKEA8n-205" target="xhsn_PsGptboTVmKEA8n-216" edge="1">
          <mxGeometry relative="1" as="geometry" />
        </mxCell>
        <mxCell id="xhsn_PsGptboTVmKEA8n-204" value="Yes" style="edgeLabel;html=1;align=center;verticalAlign=middle;resizable=0;points=[];" parent="xhsn_PsGptboTVmKEA8n-203" vertex="1" connectable="0">
          <mxGeometry x="-0.1879" y="1" relative="1" as="geometry">
            <mxPoint as="offset" />
          </mxGeometry>
        </mxCell>
        <mxCell id="xhsn_PsGptboTVmKEA8n-205" value="Did contestantName&amp;nbsp;choose world history category?" style="rhombus;whiteSpace=wrap;html=1;" parent="1" vertex="1">
          <mxGeometry x="485" y="-380" width="150" height="110" as="geometry" />
        </mxCell>
        <mxCell id="xhsn_PsGptboTVmKEA8n-206" style="edgeStyle=orthogonalEdgeStyle;rounded=0;orthogonalLoop=1;jettySize=auto;html=1;exitX=0.5;exitY=1;exitDx=0;exitDy=0;entryX=0.5;entryY=0;entryDx=0;entryDy=0;" parent="1" source="xhsn_PsGptboTVmKEA8n-207" target="xhsn_PsGptboTVmKEA8n-209" edge="1">
          <mxGeometry relative="1" as="geometry" />
        </mxCell>
        <mxCell id="xhsn_PsGptboTVmKEA8n-207" value="Output &quot;The first female Pharaoh of Egypt&lt;span style=&quot;background-color: initial;&quot;&gt;&quot;&lt;/span&gt;" style="shape=parallelogram;perimeter=parallelogramPerimeter;whiteSpace=wrap;html=1;fixedSize=1;" parent="1" vertex="1">
          <mxGeometry x="670" y="-250" width="200" height="60" as="geometry" />
        </mxCell>
        <mxCell id="xhsn_PsGptboTVmKEA8n-208" style="edgeStyle=orthogonalEdgeStyle;rounded=0;orthogonalLoop=1;jettySize=auto;html=1;exitX=0.5;exitY=1;exitDx=0;exitDy=0;entryX=0.5;entryY=0;entryDx=0;entryDy=0;" parent="1" source="xhsn_PsGptboTVmKEA8n-209" target="xhsn_PsGptboTVmKEA8n-211" edge="1">
          <mxGeometry relative="1" as="geometry" />
        </mxCell>
        <mxCell id="xhsn_PsGptboTVmKEA8n-209" value="Begin 5 second timer" style="rounded=0;whiteSpace=wrap;html=1;" parent="1" vertex="1">
          <mxGeometry x="710" y="-150" width="120" height="60" as="geometry" />
        </mxCell>
        <mxCell id="xhsn_PsGptboTVmKEA8n-210" style="edgeStyle=orthogonalEdgeStyle;rounded=0;orthogonalLoop=1;jettySize=auto;html=1;exitX=0.5;exitY=1;exitDx=0;exitDy=0;entryX=0.5;entryY=0;entryDx=0;entryDy=0;" parent="1" source="xhsn_PsGptboTVmKEA8n-211" target="xhsn_PsGptboTVmKEA8n-219" edge="1">
          <mxGeometry relative="1" as="geometry" />
        </mxCell>
        <mxCell id="xhsn_PsGptboTVmKEA8n-211" value="Input answer" style="shape=parallelogram;perimeter=parallelogramPerimeter;whiteSpace=wrap;html=1;fixedSize=1;" parent="1" vertex="1">
          <mxGeometry x="710" y="-60" width="120" height="60" as="geometry" />
        </mxCell>
        <mxCell id="xhsn_PsGptboTVmKEA8n-212" style="edgeStyle=orthogonalEdgeStyle;rounded=0;orthogonalLoop=1;jettySize=auto;html=1;exitX=0.5;exitY=1;exitDx=0;exitDy=0;entryX=0.5;entryY=0;entryDx=0;entryDy=0;" parent="1" source="xhsn_PsGptboTVmKEA8n-216" target="xhsn_PsGptboTVmKEA8n-207" edge="1">
          <mxGeometry relative="1" as="geometry" />
        </mxCell>
        <mxCell id="xhsn_PsGptboTVmKEA8n-213" value="No" style="edgeLabel;html=1;align=center;verticalAlign=middle;resizable=0;points=[];" parent="xhsn_PsGptboTVmKEA8n-212" vertex="1" connectable="0">
          <mxGeometry x="-0.4133" y="1" relative="1" as="geometry">
            <mxPoint as="offset" />
          </mxGeometry>
        </mxCell>
        <mxCell id="xhsn_PsGptboTVmKEA8n-214" style="edgeStyle=orthogonalEdgeStyle;rounded=0;orthogonalLoop=1;jettySize=auto;html=1;exitX=1;exitY=0.5;exitDx=0;exitDy=0;entryX=0;entryY=0.5;entryDx=0;entryDy=0;" parent="1" source="xhsn_PsGptboTVmKEA8n-216" target="xhsn_PsGptboTVmKEA8n-230" edge="1">
          <mxGeometry relative="1" as="geometry" />
        </mxCell>
        <mxCell id="xhsn_PsGptboTVmKEA8n-215" value="Yes" style="edgeLabel;html=1;align=center;verticalAlign=middle;resizable=0;points=[];" parent="xhsn_PsGptboTVmKEA8n-214" vertex="1" connectable="0">
          <mxGeometry x="0.0476" y="1" relative="1" as="geometry">
            <mxPoint as="offset" />
          </mxGeometry>
        </mxCell>
        <mxCell id="xhsn_PsGptboTVmKEA8n-216" value="Has world history&lt;div&gt;&amp;nbsp;category,&amp;nbsp;&lt;span style=&quot;background-color: initial;&quot;&gt;question 1 been asked before?&lt;/span&gt;&lt;/div&gt;" style="rhombus;whiteSpace=wrap;html=1;" parent="1" vertex="1">
          <mxGeometry x="690" y="-375" width="160" height="100" as="geometry" />
        </mxCell>
        <mxCell id="xhsn_PsGptboTVmKEA8n-217" style="edgeStyle=orthogonalEdgeStyle;rounded=0;orthogonalLoop=1;jettySize=auto;html=1;exitX=0.5;exitY=1;exitDx=0;exitDy=0;" parent="1" source="xhsn_PsGptboTVmKEA8n-219" target="xhsn_PsGptboTVmKEA8n-223" edge="1">
          <mxGeometry relative="1" as="geometry" />
        </mxCell>
        <mxCell id="xhsn_PsGptboTVmKEA8n-218" value="No" style="edgeLabel;html=1;align=center;verticalAlign=middle;resizable=0;points=[];" parent="xhsn_PsGptboTVmKEA8n-217" vertex="1" connectable="0">
          <mxGeometry x="-0.1014" relative="1" as="geometry">
            <mxPoint as="offset" />
          </mxGeometry>
        </mxCell>
        <mxCell id="xhsn_PsGptboTVmKEA8n-219" value="Is answer &quot;Who is Hatshepsut&lt;span style=&quot;background-color: initial;&quot;&gt;&quot;?&lt;/span&gt;" style="rhombus;whiteSpace=wrap;html=1;" parent="1" vertex="1">
          <mxGeometry x="705" y="30" width="130" height="80" as="geometry" />
        </mxCell>
        <mxCell id="xhsn_PsGptboTVmKEA8n-220" style="edgeStyle=orthogonalEdgeStyle;rounded=0;orthogonalLoop=1;jettySize=auto;html=1;exitX=0.5;exitY=1;exitDx=0;exitDy=0;entryX=1;entryY=0.5;entryDx=0;entryDy=0;" parent="1" source="xhsn_PsGptboTVmKEA8n-221" edge="1">
          <mxGeometry relative="1" as="geometry">
            <mxPoint x="620" y="320" as="targetPoint" />
            <Array as="points">
              <mxPoint x="850" y="320" />
            </Array>
          </mxGeometry>
        </mxCell>
        <mxCell id="xhsn_PsGptboTVmKEA8n-221" value="contestantName&amp;nbsp;is awarded 100 to gameWinnings&amp;nbsp;and selects the next category" style="rounded=0;whiteSpace=wrap;html=1;" parent="1" vertex="1">
          <mxGeometry x="790" y="150" width="120" height="70" as="geometry" />
        </mxCell>
        <mxCell id="xhsn_PsGptboTVmKEA8n-222" style="edgeStyle=orthogonalEdgeStyle;rounded=0;orthogonalLoop=1;jettySize=auto;html=1;exitX=0.5;exitY=1;exitDx=0;exitDy=0;entryX=1;entryY=0.5;entryDx=0;entryDy=0;" parent="1" source="xhsn_PsGptboTVmKEA8n-223" edge="1">
          <mxGeometry relative="1" as="geometry">
            <mxPoint x="620" y="320" as="targetPoint" />
            <Array as="points">
              <mxPoint x="695" y="320" />
            </Array>
          </mxGeometry>
        </mxCell>
        <mxCell id="xhsn_PsGptboTVmKEA8n-223" value="contestantName&amp;nbsp;loses a turn" style="rounded=0;whiteSpace=wrap;html=1;" parent="1" vertex="1">
          <mxGeometry x="635" y="150" width="120" height="60" as="geometry" />
        </mxCell>
        <mxCell id="xhsn_PsGptboTVmKEA8n-224" style="edgeStyle=orthogonalEdgeStyle;rounded=0;orthogonalLoop=1;jettySize=auto;html=1;exitX=1;exitY=0.5;exitDx=0;exitDy=0;entryX=0.567;entryY=0.05;entryDx=0;entryDy=0;entryPerimeter=0;" parent="1" source="xhsn_PsGptboTVmKEA8n-219" target="xhsn_PsGptboTVmKEA8n-221" edge="1">
          <mxGeometry relative="1" as="geometry" />
        </mxCell>
        <mxCell id="xhsn_PsGptboTVmKEA8n-225" value="Yes" style="edgeLabel;html=1;align=center;verticalAlign=middle;resizable=0;points=[];" parent="xhsn_PsGptboTVmKEA8n-224" vertex="1" connectable="0">
          <mxGeometry x="0.1761" y="3" relative="1" as="geometry">
            <mxPoint as="offset" />
          </mxGeometry>
        </mxCell>
        <mxCell id="xhsn_PsGptboTVmKEA8n-226" style="edgeStyle=orthogonalEdgeStyle;rounded=0;orthogonalLoop=1;jettySize=auto;html=1;exitX=0.5;exitY=1;exitDx=0;exitDy=0;entryX=0.5;entryY=0;entryDx=0;entryDy=0;" parent="1" source="xhsn_PsGptboTVmKEA8n-230" target="xhsn_PsGptboTVmKEA8n-231" edge="1">
          <mxGeometry relative="1" as="geometry" />
        </mxCell>
        <mxCell id="xhsn_PsGptboTVmKEA8n-227" value="No" style="edgeLabel;html=1;align=center;verticalAlign=middle;resizable=0;points=[];" parent="xhsn_PsGptboTVmKEA8n-226" vertex="1" connectable="0">
          <mxGeometry x="-0.3333" y="-2" relative="1" as="geometry">
            <mxPoint as="offset" />
          </mxGeometry>
        </mxCell>
        <mxCell id="xhsn_PsGptboTVmKEA8n-228" style="edgeStyle=orthogonalEdgeStyle;rounded=0;orthogonalLoop=1;jettySize=auto;html=1;exitX=1;exitY=0.5;exitDx=0;exitDy=0;" parent="1" source="xhsn_PsGptboTVmKEA8n-230" target="xhsn_PsGptboTVmKEA8n-250" edge="1">
          <mxGeometry relative="1" as="geometry" />
        </mxCell>
        <mxCell id="xhsn_PsGptboTVmKEA8n-229" value="Yes" style="edgeLabel;html=1;align=center;verticalAlign=middle;resizable=0;points=[];" parent="xhsn_PsGptboTVmKEA8n-228" vertex="1" connectable="0">
          <mxGeometry x="-0.2278" y="1" relative="1" as="geometry">
            <mxPoint as="offset" />
          </mxGeometry>
        </mxCell>
        <mxCell id="xhsn_PsGptboTVmKEA8n-230" value="Has world history&lt;div&gt;&amp;nbsp;category,&amp;nbsp;&lt;span style=&quot;background-color: initial;&quot;&gt;question 2 been&amp;nbsp;&lt;/span&gt;&lt;span style=&quot;background-color: initial;&quot;&gt;asked before?&lt;/span&gt;&lt;/div&gt;" style="rhombus;whiteSpace=wrap;html=1;" parent="1" vertex="1">
          <mxGeometry x="920" y="-370" width="140" height="90" as="geometry" />
        </mxCell>
        <mxCell id="xhsn_PsGptboTVmKEA8n-231" value="Output &quot;Writer of&amp;nbsp;&lt;div&gt;&lt;span style=&quot;background-color: initial;&quot;&gt;&amp;nbsp;&#39;The Republic&#39;&quot;&lt;/span&gt;&lt;/div&gt;" style="shape=parallelogram;perimeter=parallelogramPerimeter;whiteSpace=wrap;html=1;fixedSize=1;" parent="1" vertex="1">
          <mxGeometry x="925" y="-250" width="130" height="60" as="geometry" />
        </mxCell>
        <mxCell id="xhsn_PsGptboTVmKEA8n-232" style="edgeStyle=orthogonalEdgeStyle;rounded=0;orthogonalLoop=1;jettySize=auto;html=1;exitX=0.5;exitY=1;exitDx=0;exitDy=0;entryX=0.5;entryY=0;entryDx=0;entryDy=0;" parent="1" source="xhsn_PsGptboTVmKEA8n-233" target="xhsn_PsGptboTVmKEA8n-236" edge="1">
          <mxGeometry relative="1" as="geometry" />
        </mxCell>
        <mxCell id="xhsn_PsGptboTVmKEA8n-233" value="Begin 5 second timer" style="rounded=0;whiteSpace=wrap;html=1;" parent="1" vertex="1">
          <mxGeometry x="920" y="-150" width="120" height="60" as="geometry" />
        </mxCell>
        <mxCell id="xhsn_PsGptboTVmKEA8n-234" style="edgeStyle=orthogonalEdgeStyle;rounded=0;orthogonalLoop=1;jettySize=auto;html=1;exitX=0.5;exitY=1;exitDx=0;exitDy=0;entryX=0.581;entryY=0.006;entryDx=0;entryDy=0;entryPerimeter=0;" parent="1" source="xhsn_PsGptboTVmKEA8n-231" target="xhsn_PsGptboTVmKEA8n-233" edge="1">
          <mxGeometry relative="1" as="geometry" />
        </mxCell>
        <mxCell id="xhsn_PsGptboTVmKEA8n-235" style="edgeStyle=orthogonalEdgeStyle;rounded=0;orthogonalLoop=1;jettySize=auto;html=1;exitX=0.5;exitY=1;exitDx=0;exitDy=0;entryX=0.5;entryY=0;entryDx=0;entryDy=0;" parent="1" source="xhsn_PsGptboTVmKEA8n-236" target="xhsn_PsGptboTVmKEA8n-239" edge="1">
          <mxGeometry relative="1" as="geometry" />
        </mxCell>
        <mxCell id="xhsn_PsGptboTVmKEA8n-236" value="Input answer" style="shape=parallelogram;perimeter=parallelogramPerimeter;whiteSpace=wrap;html=1;fixedSize=1;" parent="1" vertex="1">
          <mxGeometry x="930" y="-60" width="120" height="60" as="geometry" />
        </mxCell>
        <mxCell id="xhsn_PsGptboTVmKEA8n-237" style="edgeStyle=orthogonalEdgeStyle;rounded=0;orthogonalLoop=1;jettySize=auto;html=1;exitX=1;exitY=0.5;exitDx=0;exitDy=0;entryX=0.5;entryY=0;entryDx=0;entryDy=0;" parent="1" source="xhsn_PsGptboTVmKEA8n-239" target="xhsn_PsGptboTVmKEA8n-243" edge="1">
          <mxGeometry relative="1" as="geometry" />
        </mxCell>
        <mxCell id="xhsn_PsGptboTVmKEA8n-238" value="Yes" style="edgeLabel;html=1;align=center;verticalAlign=middle;resizable=0;points=[];" parent="xhsn_PsGptboTVmKEA8n-237" vertex="1" connectable="0">
          <mxGeometry x="-0.4" y="1" relative="1" as="geometry">
            <mxPoint as="offset" />
          </mxGeometry>
        </mxCell>
        <mxCell id="xhsn_PsGptboTVmKEA8n-239" value="Is answer &quot;Who is Plato&quot;?" style="rhombus;whiteSpace=wrap;html=1;" parent="1" vertex="1">
          <mxGeometry x="930" y="30" width="120" height="80" as="geometry" />
        </mxCell>
        <mxCell id="xhsn_PsGptboTVmKEA8n-240" style="edgeStyle=orthogonalEdgeStyle;rounded=0;orthogonalLoop=1;jettySize=auto;html=1;exitX=0.5;exitY=1;exitDx=0;exitDy=0;entryX=1;entryY=0.5;entryDx=0;entryDy=0;" parent="1" source="xhsn_PsGptboTVmKEA8n-241" edge="1">
          <mxGeometry relative="1" as="geometry">
            <mxPoint x="620" y="320" as="targetPoint" />
            <Array as="points">
              <mxPoint x="985" y="320" />
            </Array>
          </mxGeometry>
        </mxCell>
        <mxCell id="xhsn_PsGptboTVmKEA8n-241" value="contestantName&amp;nbsp;loses a turn" style="rounded=0;whiteSpace=wrap;html=1;" parent="1" vertex="1">
          <mxGeometry x="925" y="150" width="120" height="60" as="geometry" />
        </mxCell>
        <mxCell id="xhsn_PsGptboTVmKEA8n-242" style="edgeStyle=orthogonalEdgeStyle;rounded=0;orthogonalLoop=1;jettySize=auto;html=1;exitX=0.5;exitY=1;exitDx=0;exitDy=0;entryX=1;entryY=0.5;entryDx=0;entryDy=0;" parent="1" source="xhsn_PsGptboTVmKEA8n-243" edge="1">
          <mxGeometry relative="1" as="geometry">
            <mxPoint x="620" y="320" as="targetPoint" />
            <Array as="points">
              <mxPoint x="1130" y="320" />
            </Array>
          </mxGeometry>
        </mxCell>
        <mxCell id="xhsn_PsGptboTVmKEA8n-243" value="contestantName&amp;nbsp;is awarded 200 to gameWinnings&amp;nbsp;and selects the next category" style="rounded=0;whiteSpace=wrap;html=1;" parent="1" vertex="1">
          <mxGeometry x="1070" y="150" width="120" height="70" as="geometry" />
        </mxCell>
        <mxCell id="xhsn_PsGptboTVmKEA8n-244" style="edgeStyle=orthogonalEdgeStyle;rounded=0;orthogonalLoop=1;jettySize=auto;html=1;exitX=0.5;exitY=1;exitDx=0;exitDy=0;entryX=0.564;entryY=-0.028;entryDx=0;entryDy=0;entryPerimeter=0;" parent="1" source="xhsn_PsGptboTVmKEA8n-239" target="xhsn_PsGptboTVmKEA8n-241" edge="1">
          <mxGeometry relative="1" as="geometry" />
        </mxCell>
        <mxCell id="xhsn_PsGptboTVmKEA8n-245" value="No" style="edgeLabel;html=1;align=center;verticalAlign=middle;resizable=0;points=[];" parent="xhsn_PsGptboTVmKEA8n-244" vertex="1" connectable="0">
          <mxGeometry x="-0.332" relative="1" as="geometry">
            <mxPoint as="offset" />
          </mxGeometry>
        </mxCell>
        <mxCell id="xhsn_PsGptboTVmKEA8n-246" style="edgeStyle=orthogonalEdgeStyle;rounded=0;orthogonalLoop=1;jettySize=auto;html=1;exitX=0.5;exitY=1;exitDx=0;exitDy=0;entryX=0.5;entryY=0;entryDx=0;entryDy=0;" parent="1" source="xhsn_PsGptboTVmKEA8n-250" target="xhsn_PsGptboTVmKEA8n-252" edge="1">
          <mxGeometry relative="1" as="geometry" />
        </mxCell>
        <mxCell id="xhsn_PsGptboTVmKEA8n-247" value="No" style="edgeLabel;html=1;align=center;verticalAlign=middle;resizable=0;points=[];" parent="xhsn_PsGptboTVmKEA8n-246" vertex="1" connectable="0">
          <mxGeometry x="-0.4857" y="-2" relative="1" as="geometry">
            <mxPoint as="offset" />
          </mxGeometry>
        </mxCell>
        <mxCell id="xhsn_PsGptboTVmKEA8n-248" style="edgeStyle=orthogonalEdgeStyle;rounded=0;orthogonalLoop=1;jettySize=auto;html=1;exitX=1;exitY=0.5;exitDx=0;exitDy=0;entryX=1;entryY=0.5;entryDx=0;entryDy=0;" parent="1" source="xhsn_PsGptboTVmKEA8n-250" edge="1">
          <mxGeometry relative="1" as="geometry">
            <mxPoint x="620" y="320" as="targetPoint" />
            <Array as="points">
              <mxPoint x="1480" y="-325" />
              <mxPoint x="1480" y="320" />
            </Array>
          </mxGeometry>
        </mxCell>
        <mxCell id="xhsn_PsGptboTVmKEA8n-249" value="Yes" style="edgeLabel;html=1;align=center;verticalAlign=middle;resizable=0;points=[];" parent="xhsn_PsGptboTVmKEA8n-248" vertex="1" connectable="0">
          <mxGeometry x="-0.9162" y="-2" relative="1" as="geometry">
            <mxPoint x="-1" as="offset" />
          </mxGeometry>
        </mxCell>
        <mxCell id="xhsn_PsGptboTVmKEA8n-250" value="Has world history&lt;div&gt;&amp;nbsp;category, question 3 been asked before?&lt;/div&gt;" style="rhombus;whiteSpace=wrap;html=1;" parent="1" vertex="1">
          <mxGeometry x="1180" y="-365" width="150" height="80" as="geometry" />
        </mxCell>
        <mxCell id="xhsn_PsGptboTVmKEA8n-251" style="edgeStyle=orthogonalEdgeStyle;rounded=0;orthogonalLoop=1;jettySize=auto;html=1;exitX=0.5;exitY=1;exitDx=0;exitDy=0;" parent="1" source="xhsn_PsGptboTVmKEA8n-252" target="xhsn_PsGptboTVmKEA8n-254" edge="1">
          <mxGeometry relative="1" as="geometry" />
        </mxCell>
        <mxCell id="xhsn_PsGptboTVmKEA8n-252" value="Output &quot;The year the Berlin Wall fell&quot;" style="shape=parallelogram;perimeter=parallelogramPerimeter;whiteSpace=wrap;html=1;fixedSize=1;" parent="1" vertex="1">
          <mxGeometry x="1187.5" y="-250" width="135" height="60" as="geometry" />
        </mxCell>
        <mxCell id="xhsn_PsGptboTVmKEA8n-253" style="edgeStyle=orthogonalEdgeStyle;rounded=0;orthogonalLoop=1;jettySize=auto;html=1;exitX=0.5;exitY=1;exitDx=0;exitDy=0;entryX=0.5;entryY=0;entryDx=0;entryDy=0;" parent="1" source="xhsn_PsGptboTVmKEA8n-254" target="xhsn_PsGptboTVmKEA8n-256" edge="1">
          <mxGeometry relative="1" as="geometry" />
        </mxCell>
        <mxCell id="xhsn_PsGptboTVmKEA8n-254" value="Begin 5 second timer" style="rounded=0;whiteSpace=wrap;html=1;" parent="1" vertex="1">
          <mxGeometry x="1195" y="-150" width="120" height="60" as="geometry" />
        </mxCell>
        <mxCell id="xhsn_PsGptboTVmKEA8n-255" style="edgeStyle=orthogonalEdgeStyle;rounded=0;orthogonalLoop=1;jettySize=auto;html=1;exitX=0.5;exitY=1;exitDx=0;exitDy=0;entryX=0.5;entryY=0;entryDx=0;entryDy=0;" parent="1" source="xhsn_PsGptboTVmKEA8n-256" target="xhsn_PsGptboTVmKEA8n-259" edge="1">
          <mxGeometry relative="1" as="geometry" />
        </mxCell>
        <mxCell id="xhsn_PsGptboTVmKEA8n-256" value="Input answer" style="shape=parallelogram;perimeter=parallelogramPerimeter;whiteSpace=wrap;html=1;fixedSize=1;" parent="1" vertex="1">
          <mxGeometry x="1190" y="-70" width="120" height="60" as="geometry" />
        </mxCell>
        <mxCell id="xhsn_PsGptboTVmKEA8n-257" style="edgeStyle=orthogonalEdgeStyle;rounded=0;orthogonalLoop=1;jettySize=auto;html=1;exitX=0.5;exitY=1;exitDx=0;exitDy=0;entryX=0.5;entryY=0;entryDx=0;entryDy=0;" parent="1" source="xhsn_PsGptboTVmKEA8n-259" target="xhsn_PsGptboTVmKEA8n-261" edge="1">
          <mxGeometry relative="1" as="geometry" />
        </mxCell>
        <mxCell id="xhsn_PsGptboTVmKEA8n-258" value="No" style="edgeLabel;html=1;align=center;verticalAlign=middle;resizable=0;points=[];" parent="xhsn_PsGptboTVmKEA8n-257" vertex="1" connectable="0">
          <mxGeometry x="-0.5964" y="2" relative="1" as="geometry">
            <mxPoint as="offset" />
          </mxGeometry>
        </mxCell>
        <mxCell id="xhsn_PsGptboTVmKEA8n-259" value="Is answer &quot;What is 1989&quot;?" style="rhombus;whiteSpace=wrap;html=1;" parent="1" vertex="1">
          <mxGeometry x="1215" y="20" width="80" height="80" as="geometry" />
        </mxCell>
        <mxCell id="xhsn_PsGptboTVmKEA8n-260" style="edgeStyle=orthogonalEdgeStyle;rounded=0;orthogonalLoop=1;jettySize=auto;html=1;exitX=0.5;exitY=1;exitDx=0;exitDy=0;entryX=1;entryY=0.5;entryDx=0;entryDy=0;" parent="1" source="xhsn_PsGptboTVmKEA8n-261" edge="1">
          <mxGeometry relative="1" as="geometry">
            <mxPoint x="620" y="320" as="targetPoint" />
            <Array as="points">
              <mxPoint x="1263" y="320" />
            </Array>
          </mxGeometry>
        </mxCell>
        <mxCell id="xhsn_PsGptboTVmKEA8n-261" value="contestantName&amp;nbsp;loses a turn" style="rounded=0;whiteSpace=wrap;html=1;" parent="1" vertex="1">
          <mxGeometry x="1202.5" y="150" width="120" height="60" as="geometry" />
        </mxCell>
        <mxCell id="xhsn_PsGptboTVmKEA8n-262" style="edgeStyle=orthogonalEdgeStyle;rounded=0;orthogonalLoop=1;jettySize=auto;html=1;exitX=0.5;exitY=1;exitDx=0;exitDy=0;entryX=1;entryY=0.5;entryDx=0;entryDy=0;" parent="1" source="xhsn_PsGptboTVmKEA8n-263" edge="1">
          <mxGeometry relative="1" as="geometry">
            <mxPoint x="620" y="320" as="targetPoint" />
            <Array as="points">
              <mxPoint x="1400" y="320" />
            </Array>
          </mxGeometry>
        </mxCell>
        <mxCell id="xhsn_PsGptboTVmKEA8n-263" value="contestantName&amp;nbsp;is awarded 300 to gameWinnings&amp;nbsp;and selects the next category" style="rounded=0;whiteSpace=wrap;html=1;" parent="1" vertex="1">
          <mxGeometry x="1340" y="90" width="120" height="70" as="geometry" />
        </mxCell>
        <mxCell id="xhsn_PsGptboTVmKEA8n-264" style="edgeStyle=orthogonalEdgeStyle;rounded=0;orthogonalLoop=1;jettySize=auto;html=1;exitX=1;exitY=0.5;exitDx=0;exitDy=0;entryX=0.439;entryY=0.006;entryDx=0;entryDy=0;entryPerimeter=0;" parent="1" source="xhsn_PsGptboTVmKEA8n-259" target="xhsn_PsGptboTVmKEA8n-263" edge="1">
          <mxGeometry relative="1" as="geometry" />
        </mxCell>
        <mxCell id="xhsn_PsGptboTVmKEA8n-265" value="Yes" style="edgeLabel;html=1;align=center;verticalAlign=middle;resizable=0;points=[];" parent="xhsn_PsGptboTVmKEA8n-264" vertex="1" connectable="0">
          <mxGeometry x="-0.1731" relative="1" as="geometry">
            <mxPoint as="offset" />
          </mxGeometry>
        </mxCell>
        <mxCell id="xhsn_PsGptboTVmKEA8n-266" value="worldHistory ()" style="html=1;dashed=0;whiteSpace=wrap;shape=mxgraph.dfd.loop" parent="1" vertex="1">
          <mxGeometry x="520" y="-430" width="90" height="30" as="geometry" />
        </mxCell>
        <mxCell id="xhsn_PsGptboTVmKEA8n-267" value="Return" style="html=1;dashed=0;whiteSpace=wrap;shape=mxgraph.dfd.loop" parent="1" vertex="1">
          <mxGeometry x="540" y="305" width="80" height="30" as="geometry" />
        </mxCell>
        <mxCell id="xhsn_PsGptboTVmKEA8n-268" style="edgeStyle=orthogonalEdgeStyle;rounded=0;orthogonalLoop=1;jettySize=auto;html=1;exitX=0.5;exitY=1;exitDx=0;exitDy=0;entryX=0.257;entryY=-0.017;entryDx=0;entryDy=0;entryPerimeter=0;" parent="1" source="xhsn_PsGptboTVmKEA8n-205" target="xhsn_PsGptboTVmKEA8n-267" edge="1">
          <mxGeometry relative="1" as="geometry" />
        </mxCell>
        <mxCell id="xhsn_PsGptboTVmKEA8n-269" value="No" style="edgeLabel;html=1;align=center;verticalAlign=middle;resizable=0;points=[];" parent="xhsn_PsGptboTVmKEA8n-268" vertex="1" connectable="0">
          <mxGeometry x="0.0143" y="-3" relative="1" as="geometry">
            <mxPoint as="offset" />
          </mxGeometry>
        </mxCell>
        <mxCell id="xhsn_PsGptboTVmKEA8n-272" style="edgeStyle=orthogonalEdgeStyle;rounded=0;orthogonalLoop=1;jettySize=auto;html=1;exitX=0.5;exitY=1;exitDx=0;exitDy=0;exitPerimeter=0;entryX=0.5;entryY=0;entryDx=0;entryDy=0;" parent="1" source="xhsn_PsGptboTVmKEA8n-270" target="xhsn_PsGptboTVmKEA8n-271" edge="1">
          <mxGeometry relative="1" as="geometry" />
        </mxCell>
        <mxCell id="xhsn_PsGptboTVmKEA8n-270" value="finalJeopardy ()" style="html=1;dashed=0;whiteSpace=wrap;shape=mxgraph.dfd.loop" parent="1" vertex="1">
          <mxGeometry x="165" y="-820" width="100" height="30" as="geometry" />
        </mxCell>
        <mxCell id="xhsn_PsGptboTVmKEA8n-271" value="Output&amp;nbsp;&lt;div&gt;&quot;The category&amp;nbsp;&lt;div&gt;for Final Jeopardy&amp;nbsp;&lt;/div&gt;&lt;div&gt;is Books.&quot;&lt;/div&gt;&lt;/div&gt;" style="shape=parallelogram;perimeter=parallelogramPerimeter;whiteSpace=wrap;html=1;dashed=0;" parent="1" vertex="1">
          <mxGeometry x="130" y="-750" width="170" height="60" as="geometry" />
        </mxCell>
        <mxCell id="xhsn_PsGptboTVmKEA8n-275" style="edgeStyle=orthogonalEdgeStyle;rounded=0;orthogonalLoop=1;jettySize=auto;html=1;exitX=0.5;exitY=1;exitDx=0;exitDy=0;entryX=0.582;entryY=-0.033;entryDx=0;entryDy=0;entryPerimeter=0;" parent="1" source="xhsn_PsGptboTVmKEA8n-271" target="xhsn_PsGptboTVmKEA8n-25" edge="1">
          <mxGeometry relative="1" as="geometry" />
        </mxCell>
        <mxCell id="xhsn_PsGptboTVmKEA8n-280" style="edgeStyle=orthogonalEdgeStyle;rounded=0;orthogonalLoop=1;jettySize=auto;html=1;exitX=0.5;exitY=1;exitDx=0;exitDy=0;entryX=0.5;entryY=0;entryDx=0;entryDy=0;" parent="1" source="xhsn_PsGptboTVmKEA8n-276" edge="1">
          <mxGeometry relative="1" as="geometry">
            <mxPoint x="195" y="-450" as="targetPoint" />
          </mxGeometry>
        </mxCell>
        <mxCell id="xhsn_PsGptboTVmKEA8n-276" value="Input bet" style="html=1;dashed=0;whiteSpace=wrap;" parent="1" vertex="1">
          <mxGeometry x="145" y="-540" width="100" height="50" as="geometry" />
        </mxCell>
        <mxCell id="xhsn_PsGptboTVmKEA8n-284" style="edgeStyle=orthogonalEdgeStyle;rounded=0;orthogonalLoop=1;jettySize=auto;html=1;exitX=0.5;exitY=1;exitDx=0;exitDy=0;entryX=0.5;entryY=0;entryDx=0;entryDy=0;" parent="1" source="xhsn_PsGptboTVmKEA8n-281" target="xhsn_PsGptboTVmKEA8n-283" edge="1">
          <mxGeometry relative="1" as="geometry" />
        </mxCell>
        <mxCell id="xhsn_PsGptboTVmKEA8n-281" value="Output &quot;T&lt;span style=&quot;background-color: initial;&quot;&gt;he author&amp;nbsp;&lt;/span&gt;&lt;div&gt;&lt;span style=&quot;background-color: initial;&quot;&gt;of &#39;The&amp;nbsp;&lt;/span&gt;&lt;div&gt;Da Vinci Code&#39;&quot;&lt;/div&gt;&lt;/div&gt;" style="shape=parallelogram;perimeter=parallelogramPerimeter;whiteSpace=wrap;html=1;dashed=0;" parent="1" vertex="1">
          <mxGeometry x="122.5" y="-450" width="145" height="50" as="geometry" />
        </mxCell>
        <mxCell id="xhsn_PsGptboTVmKEA8n-310" style="edgeStyle=orthogonalEdgeStyle;rounded=0;orthogonalLoop=1;jettySize=auto;html=1;exitX=0.5;exitY=1;exitDx=0;exitDy=0;entryX=0.5;entryY=0;entryDx=0;entryDy=0;" parent="1" source="xhsn_PsGptboTVmKEA8n-283" target="xhsn_PsGptboTVmKEA8n-309" edge="1">
          <mxGeometry relative="1" as="geometry" />
        </mxCell>
        <mxCell id="xhsn_PsGptboTVmKEA8n-283" value="Begin 20 second timer" style="html=1;dashed=0;whiteSpace=wrap;" parent="1" vertex="1">
          <mxGeometry x="145" y="-370" width="100" height="50" as="geometry" />
        </mxCell>
        <mxCell id="xhsn_PsGptboTVmKEA8n-291" style="edgeStyle=orthogonalEdgeStyle;rounded=0;orthogonalLoop=1;jettySize=auto;html=1;exitX=0.5;exitY=1;exitDx=0;exitDy=0;entryX=0.5;entryY=0;entryDx=0;entryDy=0;" parent="1" source="xhsn_PsGptboTVmKEA8n-286" target="xhsn_PsGptboTVmKEA8n-288" edge="1">
          <mxGeometry relative="1" as="geometry" />
        </mxCell>
        <mxCell id="xhsn_PsGptboTVmKEA8n-293" value="No" style="edgeLabel;html=1;align=center;verticalAlign=middle;resizable=0;points=[];" parent="xhsn_PsGptboTVmKEA8n-291" vertex="1" connectable="0">
          <mxGeometry x="-0.3714" y="-4" relative="1" as="geometry">
            <mxPoint as="offset" />
          </mxGeometry>
        </mxCell>
        <mxCell id="xhsn_PsGptboTVmKEA8n-295" style="edgeStyle=orthogonalEdgeStyle;rounded=0;orthogonalLoop=1;jettySize=auto;html=1;exitX=1;exitY=0.5;exitDx=0;exitDy=0;entryX=0;entryY=0.5;entryDx=0;entryDy=0;" parent="1" source="xhsn_PsGptboTVmKEA8n-286" target="xhsn_PsGptboTVmKEA8n-294" edge="1">
          <mxGeometry relative="1" as="geometry" />
        </mxCell>
        <mxCell id="xhsn_PsGptboTVmKEA8n-296" value="Yes" style="edgeLabel;html=1;align=center;verticalAlign=middle;resizable=0;points=[];" parent="xhsn_PsGptboTVmKEA8n-295" vertex="1" connectable="0">
          <mxGeometry x="-0.0203" y="2" relative="1" as="geometry">
            <mxPoint as="offset" />
          </mxGeometry>
        </mxCell>
        <mxCell id="xhsn_PsGptboTVmKEA8n-286" value="Did contestantName answer&amp;nbsp;&lt;span style=&quot;background-color: initial;&quot;&gt;&quot;Who is Dan Brown&quot;?&lt;/span&gt;" style="shape=rhombus;html=1;dashed=0;whiteSpace=wrap;perimeter=rhombusPerimeter;" parent="1" vertex="1">
          <mxGeometry x="132.5" y="-170" width="125" height="80" as="geometry" />
        </mxCell>
        <mxCell id="xhsn_PsGptboTVmKEA8n-300" style="edgeStyle=orthogonalEdgeStyle;rounded=0;orthogonalLoop=1;jettySize=auto;html=1;exitX=0.5;exitY=1;exitDx=0;exitDy=0;entryX=0.5;entryY=0;entryDx=0;entryDy=0;" parent="1" source="xhsn_PsGptboTVmKEA8n-288" target="xhsn_PsGptboTVmKEA8n-299" edge="1">
          <mxGeometry relative="1" as="geometry" />
        </mxCell>
        <mxCell id="xhsn_PsGptboTVmKEA8n-288" value="afterFinalJeopardy = gameWinnings + 0" style="html=1;dashed=0;whiteSpace=wrap;" parent="1" vertex="1">
          <mxGeometry x="145" y="-55" width="100" height="50" as="geometry" />
        </mxCell>
        <mxCell id="xhsn_PsGptboTVmKEA8n-303" style="edgeStyle=orthogonalEdgeStyle;rounded=0;orthogonalLoop=1;jettySize=auto;html=1;exitX=0.5;exitY=1;exitDx=0;exitDy=0;entryX=0.5;entryY=0;entryDx=0;entryDy=0;" parent="1" source="xhsn_PsGptboTVmKEA8n-294" target="xhsn_PsGptboTVmKEA8n-299" edge="1">
          <mxGeometry relative="1" as="geometry">
            <Array as="points">
              <mxPoint x="365" y="20" />
              <mxPoint x="195" y="20" />
            </Array>
          </mxGeometry>
        </mxCell>
        <mxCell id="xhsn_PsGptboTVmKEA8n-294" value="afterFinalJeopardy = gameWinnings + bet" style="html=1;dashed=0;whiteSpace=wrap;" parent="1" vertex="1">
          <mxGeometry x="315" y="-155" width="100" height="50" as="geometry" />
        </mxCell>
        <mxCell id="xhsn_PsGptboTVmKEA8n-302" style="edgeStyle=orthogonalEdgeStyle;rounded=0;orthogonalLoop=1;jettySize=auto;html=1;exitX=1;exitY=0.5;exitDx=0;exitDy=0;entryX=0.5;entryY=0;entryDx=0;entryDy=0;" parent="1" source="xhsn_PsGptboTVmKEA8n-299" target="xhsn_PsGptboTVmKEA8n-286" edge="1">
          <mxGeometry relative="1" as="geometry">
            <Array as="points">
              <mxPoint x="440" y="73" />
              <mxPoint x="440" y="-190" />
              <mxPoint x="195" y="-190" />
            </Array>
          </mxGeometry>
        </mxCell>
        <mxCell id="xhsn_PsGptboTVmKEA8n-305" value="Yes" style="edgeLabel;html=1;align=center;verticalAlign=middle;resizable=0;points=[];" parent="xhsn_PsGptboTVmKEA8n-302" vertex="1" connectable="0">
          <mxGeometry x="-0.8395" y="7" relative="1" as="geometry">
            <mxPoint y="1" as="offset" />
          </mxGeometry>
        </mxCell>
        <mxCell id="xhsn_PsGptboTVmKEA8n-308" style="edgeStyle=orthogonalEdgeStyle;rounded=0;orthogonalLoop=1;jettySize=auto;html=1;exitX=0.5;exitY=1;exitDx=0;exitDy=0;entryX=0.5;entryY=0;entryDx=0;entryDy=0;" parent="1" source="xhsn_PsGptboTVmKEA8n-299" edge="1">
          <mxGeometry relative="1" as="geometry">
            <mxPoint x="195" y="145" as="targetPoint" />
            <Array as="points">
              <mxPoint x="195" y="150" />
              <mxPoint x="195" y="150" />
            </Array>
          </mxGeometry>
        </mxCell>
        <mxCell id="xhsn_PsGptboTVmKEA8n-312" value="No" style="edgeLabel;html=1;align=center;verticalAlign=middle;resizable=0;points=[];" parent="xhsn_PsGptboTVmKEA8n-308" vertex="1" connectable="0">
          <mxGeometry x="-0.0667" y="-6" relative="1" as="geometry">
            <mxPoint as="offset" />
          </mxGeometry>
        </mxCell>
        <mxCell id="xhsn_PsGptboTVmKEA8n-299" value="Are there more contestants to assess answers from?" style="shape=rhombus;html=1;dashed=0;whiteSpace=wrap;perimeter=rhombusPerimeter;" parent="1" vertex="1">
          <mxGeometry x="122.5" y="30" width="145" height="85" as="geometry" />
        </mxCell>
        <mxCell id="xhsn_PsGptboTVmKEA8n-311" style="edgeStyle=orthogonalEdgeStyle;rounded=0;orthogonalLoop=1;jettySize=auto;html=1;exitX=0.5;exitY=1;exitDx=0;exitDy=0;" parent="1" source="xhsn_PsGptboTVmKEA8n-309" edge="1">
          <mxGeometry relative="1" as="geometry">
            <mxPoint x="195" y="-170" as="targetPoint" />
          </mxGeometry>
        </mxCell>
        <mxCell id="xhsn_PsGptboTVmKEA8n-309" value="Input answer" style="shape=parallelogram;perimeter=parallelogramPerimeter;whiteSpace=wrap;html=1;dashed=0;" parent="1" vertex="1">
          <mxGeometry x="145" y="-290" width="100" height="50" as="geometry" />
        </mxCell>
        <mxCell id="xhsn_PsGptboTVmKEA8n-313" value="winningPlayer = afterFinalJeopardy &amp;gt; otherConstants" style="html=1;dashed=0;whiteSpace=wrap;" parent="1" vertex="1">
          <mxGeometry x="145" y="150" width="100" height="50" as="geometry" />
        </mxCell>
        <mxCell id="xhsn_PsGptboTVmKEA8n-315" value="Return" style="html=1;dashed=0;whiteSpace=wrap;shape=mxgraph.dfd.loop" parent="1" vertex="1">
          <mxGeometry x="155" y="230" width="80" height="30" as="geometry" />
        </mxCell>
        <mxCell id="xhsn_PsGptboTVmKEA8n-316" style="edgeStyle=orthogonalEdgeStyle;rounded=0;orthogonalLoop=1;jettySize=auto;html=1;exitX=0.5;exitY=1;exitDx=0;exitDy=0;entryX=0.5;entryY=0;entryDx=0;entryDy=0;entryPerimeter=0;" parent="1" source="xhsn_PsGptboTVmKEA8n-313" target="xhsn_PsGptboTVmKEA8n-315" edge="1">
          <mxGeometry relative="1" as="geometry" />
        </mxCell>
      </root>
    </mxGraphModel>
  </diagram>
</mxfile>
